<svg width="86" height="33" viewBox="0 0 86 33" fill="none" xmlns="http://www.w3.org/2000/svg">
<path d="M44.1744 25.0126V17.704H65.7092C78.9167 19.0645 89.2613 12.2617 84.3859 25.4975L81.8775 32.3071L63.0259 32.3142L44.1744 32.3212V25.0126ZM52.9322 26.7962C53.4817 26.2827 53.59 25.429 53.1418 25.143C52.9807 25.0402 52.927 24.6144 53.02 24.1774C53.2475 23.1075 52.5887 22.4827 51.2327 22.4827H50.1633V24.8721V27.2614H51.2988C51.9734 27.2614 52.6364 27.0726 52.9322 26.7962ZM50.8062 26.2776C50.5679 25.6364 50.9014 25.0126 51.4825 25.0126C52.2683 25.0126 52.7671 25.7476 52.3411 26.2776C52.1547 26.5095 51.7684 26.6992 51.4825 26.6992C51.1967 26.6992 50.8924 26.5095 50.8062 26.2776ZM50.7077 23.7477C50.7077 23.1062 50.8074 23.0194 51.4564 23.0965C51.9948 23.1605 52.205 23.3433 52.205 23.7477C52.205 24.152 51.9948 24.3349 51.4564 24.3988C50.8074 24.4759 50.7077 24.3892 50.7077 23.7477ZM56.6967 26.8788C56.6967 26.6219 56.4724 26.5404 56.0146 26.6308C55.2949 26.7728 54.421 26.2469 54.6741 25.8241C54.7561 25.687 55.2529 25.5748 55.778 25.5748C56.651 25.5748 56.7255 25.511 56.6467 24.8302C56.5304 23.8243 55.8459 23.4126 54.8735 23.7637C54.2195 23.9999 54.0985 24.212 54.0259 25.2495C53.9793 25.9151 54.0862 26.6401 54.2634 26.8606C54.6868 27.3874 56.6967 27.4025 56.6967 26.8788V26.8788ZM54.8206 24.5807C55.0572 24.3363 55.4372 24.2273 55.6956 24.3296C56.4482 24.6279 56.2126 25.0126 55.2772 25.0126C54.4901 25.0126 54.4443 24.9692 54.8206 24.5807ZM59.6397 26.3639C59.7073 25.7591 59.5551 25.5166 58.8822 25.1573C58.0038 24.6882 58.0064 24.0812 58.8862 24.2262C59.1656 24.2722 59.4304 24.1834 59.4746 24.0288C59.5932 23.6144 58.0895 23.5111 57.633 23.9024C56.9984 24.4462 57.1776 24.9929 58.1935 25.6118C59.2784 26.2728 59.19 26.8109 58.0256 26.6344C57.4835 26.5522 57.2411 26.6358 57.2411 26.9046C57.2411 27.1886 57.5538 27.2704 58.3981 27.2073C59.4268 27.1305 59.5644 27.037 59.6397 26.3639H59.6397ZM62.1412 26.9803C62.1412 26.8257 61.9574 26.6992 61.7328 26.6992C61.4379 26.6992 61.3245 26.3869 61.3245 25.5748C61.3245 24.7628 61.4379 24.4504 61.7328 24.4504C61.9574 24.4504 62.1412 24.2607 62.1412 24.0288C62.1412 23.7969 61.9574 23.6071 61.7328 23.6071C61.5083 23.6071 61.3245 23.4174 61.3245 23.1855C61.3245 22.9536 61.1714 22.7648 60.9842 22.766C60.541 22.7689 59.8486 24.2704 60.23 24.4017C60.3828 24.4543 60.5078 25.0349 60.5078 25.692C60.5078 26.349 60.5895 26.971 60.6893 27.074C60.9743 27.3683 62.1412 27.293 62.1412 26.9803ZM64.809 26.9241C65.3614 26.3537 65.177 25.8622 64.1833 25.2567C63.1477 24.6258 63.166 24.0212 64.2126 24.2925C64.6849 24.4149 64.8634 24.3441 64.8634 24.0341C64.8634 23.5928 63.929 23.4557 63.1162 23.7778C62.3672 24.0746 62.598 25.2325 63.5023 25.7154C63.9515 25.9552 64.319 26.2891 64.319 26.4573C64.319 26.6371 63.9827 26.7121 63.5023 26.6393C62.945 26.5548 62.6856 26.634 62.6856 26.8885C62.6856 27.3633 64.3565 27.3914 64.809 26.9241ZM68.3399 26.7573C68.4239 26.4933 68.2607 26.4441 67.7449 26.5778C67.0524 26.7573 66.2246 26.3455 66.2246 25.8215C66.2246 25.6859 66.7146 25.5748 67.3135 25.5748C68.2682 25.5748 68.4023 25.4952 68.4023 24.9283C68.4023 24.0685 67.9134 23.6071 67.0022 23.6071C65.6402 23.6071 64.8549 25.807 65.8501 26.8346C66.3703 27.3718 68.162 27.3161 68.3399 26.7573V26.7573ZM66.5484 24.5577C66.7907 24.3075 67.1232 24.1885 67.2873 24.2932C67.8279 24.6382 67.5986 25.0126 66.8468 25.0126C66.166 25.0126 66.1425 24.9769 66.5484 24.5577V24.5577ZM70.3079 26.9969C70.3079 26.8515 70.1854 26.6542 70.0357 26.5587C69.886 26.4631 69.7635 25.4437 69.7635 24.2933C69.7635 22.6215 69.6815 22.2016 69.3551 22.2016C69.0289 22.2016 68.9468 22.6207 68.9468 24.2869C68.9468 25.4338 69.0212 26.5723 69.112 26.8168C69.2878 27.2898 70.3079 27.4434 70.3079 26.9969ZM72.2135 26.9969C72.2135 26.8515 72.091 26.6542 71.9413 26.5587C71.7915 26.4631 71.669 25.4437 71.669 24.2933C71.669 22.6215 71.5871 22.2016 71.2607 22.2016C70.9304 22.2016 70.8524 22.6493 70.8524 24.5441C70.8524 25.8325 70.934 26.971 71.0339 27.074C71.3084 27.3576 72.2135 27.2984 72.2135 26.9969ZM75.4802 26.8788C75.4802 26.6219 75.2559 26.5404 74.7981 26.6308C74.0785 26.7728 73.2045 26.2469 73.4576 25.8241C73.5396 25.687 74.0364 25.5748 74.5615 25.5748C75.4345 25.5748 75.509 25.511 75.4302 24.8302C75.3139 23.8243 74.6294 23.4126 73.657 23.7637C73.003 23.9999 72.882 24.212 72.8094 25.2495C72.7628 25.9151 72.8697 26.6401 73.0469 26.8606C73.4703 27.3874 75.4802 27.4025 75.4802 26.8788V26.8788ZM73.6041 24.5807C73.8407 24.3363 74.2207 24.2273 74.4791 24.3296C75.2317 24.6279 74.9961 25.0126 74.0607 25.0126C73.2736 25.0126 73.2278 24.9692 73.6041 24.5807ZM77.1135 25.8559C77.1135 24.6378 77.1861 24.4504 77.658 24.4504C77.9574 24.4504 78.2024 24.2732 78.2024 24.0566C78.2024 23.7886 77.898 23.6717 77.2497 23.6907L76.2969 23.7186V25.49C76.2969 26.8772 76.3854 27.2614 76.7052 27.2614C77.0137 27.2614 77.1135 26.9179 77.1135 25.8559ZM19.538 21.6543C16.9795 20.9749 15.4787 20.381 13.6971 19.3427C11.597 18.1189 9.32959 16.302 9.32959 15.8431C9.32959 15.6298 9.37444 15.4552 9.42925 15.4552C9.48407 15.4552 10.6827 16.0196 12.093 16.7095C19.6757 20.4185 28.9494 20.7984 36.5355 17.7108C37.8628 17.1706 38.1854 17.2052 38.1854 17.8879C38.1854 18.7691 33.7774 20.942 30.3628 21.7439C27.6658 22.3774 22.0872 22.3312 19.538 21.6543ZM38.5707 20.4448C39.7318 16.1769 39.7234 16.1546 37.0407 16.3868C34.8249 16.5786 34.4396 16.2143 36.0566 15.4565C37.2004 14.9205 39.5817 14.7089 40.4771 15.0637C41.03 15.2828 41.0565 17.2675 40.524 18.5833C39.771 20.4441 38.1508 21.988 38.5707 20.4448ZM1.68636 13.7903C1.06397 13.1476 0.890625 12.7159 0.890625 11.8086C0.890625 9.48958 2.10087 8.27178 4.72436 7.95094C6.28891 7.7596 6.43622 7.61453 6.07158 6.62419C5.8843 6.11555 5.60397 5.89785 5.13629 5.89785C4.46299 5.89785 3.61287 6.54552 3.61287 7.05849C3.61287 7.21094 3.09224 7.29678 2.45592 7.24924C1.05548 7.14461 0.807769 6.4398 1.7409 5.21483C3.42588 3.00289 7.94044 3.18203 8.79193 5.49463C8.93792 5.89113 9.06126 7.44064 9.06602 8.93797C9.07222 10.8852 9.18849 11.8158 9.47436 12.206C10.0331 12.9689 9.99658 13.0813 8.91236 13.9353L7.95068 14.6927L7.29505 14.0567L6.63943 13.4207L5.90612 14.0163C5.38376 14.4406 4.78577 14.6119 3.82744 14.6119C2.70344 14.6119 2.35117 14.4768 1.68636 13.7903ZM5.87587 11.8697C5.9394 11.7546 6.07428 11.186 6.17559 10.6063C6.3496 9.61048 6.32076 9.55215 5.65452 9.55215C4.79516 9.55215 3.49766 10.8044 3.7245 11.4148C3.81283 11.6525 3.8851 11.9538 3.8851 12.0844C3.8851 12.6706 5.53186 12.493 5.87587 11.8697V11.8697ZM11.1572 14.4378C11.0504 14.3274 10.9629 11.9181 10.9629 9.08365V3.93015H12.1965C13.0386 3.93015 13.4795 4.06316 13.5858 4.3493C13.7173 4.70324 13.8488 4.68138 14.4307 4.20875C14.8096 3.90091 15.4155 3.64905 15.7771 3.64905C16.5744 3.64905 17.9452 4.34604 18.115 4.83781C18.2006 5.08573 18.4648 4.97999 18.9782 4.49235C20.053 3.4714 21.8374 3.50641 22.8666 4.56864C23.6087 5.33462 23.623 5.41374 23.7158 9.28991C23.7678 11.4581 23.7332 13.5494 23.6389 13.9371C23.4822 14.5818 23.3579 14.6347 22.1834 14.5567L20.8991 14.4714L20.763 10.536L20.6269 6.6006H19.8225C18.7734 6.6006 18.647 7.09411 18.6124 11.3244L18.5852 14.6427L17.2922 14.5571L15.9991 14.4714L15.863 10.536C15.7289 6.65843 15.7174 6.59921 15.083 6.50652C14.7288 6.45478 14.3001 6.55545 14.1302 6.73024C13.9464 6.91928 13.7662 8.55168 13.6852 10.7597L13.5491 14.4714L12.4503 14.5549C11.846 14.6008 11.2641 14.5481 11.1572 14.4378V14.4378ZM25.9144 13.7903C25.1482 12.9991 24.9981 12.4704 25.1106 10.9576C25.2327 9.31589 26.5399 8.2949 28.9851 7.93153C29.7781 7.81368 30.3964 7.62413 30.3589 7.5103C30.3215 7.39648 30.2909 7.04639 30.2909 6.73232C30.2909 5.63703 28.3099 5.65794 27.9722 6.75681C27.8246 7.2369 27.6052 7.31909 26.661 7.24808C25.2845 7.14456 25.0419 6.43178 25.9689 5.21484C27.6539 3.00289 32.1684 3.18203 33.0199 5.49463C33.1659 5.89113 33.2854 7.44808 33.2854 8.95452C33.2854 10.9276 33.3971 11.8461 33.685 12.2391C34.2455 13.0042 34.2194 13.0854 33.1404 13.9353L32.1787 14.6927L31.5231 14.0567L30.8674 13.4207L30.1341 14.0163C29.6118 14.4406 29.0138 14.6119 28.0554 14.6119C26.9314 14.6119 26.5792 14.4768 25.9144 13.7903ZM29.9117 12.0334C30.0202 11.8521 30.1947 11.2196 30.2995 10.6279C30.4633 9.70319 30.4205 9.55215 29.9949 9.55215C28.6125 9.55215 27.5824 10.7783 28.0063 11.9192C28.1998 12.4397 29.6176 12.5248 29.9117 12.0334V12.0334ZM44.7167 13.5515C41.8624 10.6042 42.991 4.44854 46.5105 3.76674C49.8065 3.12825 52.4512 6.76133 51.5676 10.7138C50.9647 13.4109 49.6037 14.6119 47.1503 14.6119C45.8863 14.6119 45.6395 14.5044 44.7167 13.5515V13.5515ZM48.2924 11.8979C48.8108 11.2523 48.7996 6.99375 48.2778 6.34452C47.7566 5.69601 46.8458 5.89163 46.431 6.74115C46.0068 7.61012 45.9773 10.2885 46.3788 11.4779C46.718 12.4827 47.6573 12.6889 48.2924 11.8979V11.8979ZM53.0798 14.4378C52.973 14.3274 52.8855 11.9181 52.8855 9.08365V3.93015H54.1191C54.9501 3.93015 55.4025 4.06423 55.5053 4.34103C55.6318 4.6812 55.7913 4.65018 56.4323 4.16081C57.4376 3.39335 59.0242 3.60394 59.8779 4.61814C60.6442 5.52855 60.8292 6.94039 60.7269 11.0982L60.6439 14.4714H59.2828H57.9217L57.7856 10.536C57.6515 6.65843 57.64 6.59921 57.0056 6.50652C56.6514 6.45478 56.2227 6.55566 56.0528 6.73069C55.8691 6.91996 55.6887 8.5529 55.6078 10.7602L55.4717 14.4714L54.3729 14.5549C53.7686 14.6008 53.1867 14.5481 53.0798 14.4378V14.4378ZM61.7287 14.0363C61.3771 12.8924 62.905 12.0943 63.4657 13.1289C63.8384 13.8166 63.3517 14.6119 62.5583 14.6119C62.1396 14.6119 61.8422 14.4055 61.7287 14.0363V14.0363ZM65.1927 13.6522C64.0767 12.3398 63.6954 10.9725 63.8264 8.75345C63.9587 6.51248 64.6535 4.89753 65.7944 4.17911C66.809 3.54025 68.3391 3.49405 69.1464 4.07791C69.7375 4.50547 69.7396 4.50057 69.8195 2.46158L69.8996 0.416398L70.789 0.32795L71.6785 0.239502L71.6057 7.35545L71.5329 14.4714L70.7843 14.5603C70.1647 14.634 70.0357 14.5407 70.0357 14.0194V13.3895L69.4056 14.0007C68.9294 14.4628 68.4379 14.6119 67.3922 14.6119C66.1585 14.6119 65.9204 14.508 65.1927 13.6522V13.6522ZM68.9677 12.3848C69.7216 11.6064 69.7635 11.4381 69.7635 9.19003C69.7635 7.23242 69.6669 6.69021 69.2119 6.09292C68.1518 4.70122 66.8855 4.86838 66.0642 6.50846C65.7404 7.15498 65.6511 7.95472 65.7222 9.57076C65.8034 11.4188 65.9206 11.8703 66.4772 12.4822C67.3328 13.4226 67.9875 13.397 68.9677 12.3848V12.3848ZM74.5071 14.0828C73.2521 13.2925 72.4 11.0385 72.5341 8.86348C72.7888 4.7335 75.8499 2.42714 78.6973 4.2198C79.8102 4.92038 80.7182 6.89827 80.6004 8.36507L80.5163 9.4116L77.4538 9.49108C74.7032 9.56246 74.3913 9.62261 74.3913 10.0816C74.3913 11.1814 75.0211 12.3943 75.8113 12.8162C76.8647 13.3787 77.7649 13.1334 78.5206 12.0781C79.5665 10.6173 80.8894 11.2734 80.0761 12.8496C79.1993 14.5491 76.2757 15.1965 74.5071 14.0828V14.0828ZM78.7469 7.29057C78.7469 6.31179 77.703 5.05455 76.8904 5.05455C76.6043 5.05455 76.0598 5.30678 75.6802 5.61506C74.9855 6.17936 74.2991 7.67661 74.595 7.9822C74.6826 8.07265 75.6526 8.14665 76.7506 8.14665H78.7469V7.29057ZM35.1087 14.1522C35.0042 14.0443 34.9187 13.458 34.9187 12.8493C34.9187 11.9331 35.2442 11.2657 36.8088 8.97372L38.699 6.20495L37.013 6.12167L35.327 6.0384V5.05455V4.0707L38.7979 3.99202L42.2688 3.91335V4.85368C42.2688 5.55624 41.8287 6.43849 40.5284 8.34266L38.788 10.8913L39.98 11.03C40.6356 11.1063 41.487 11.3819 41.872 11.6423C42.4489 12.0327 42.5572 12.2982 42.4884 13.1531C42.3968 14.2904 42.4766 14.271 40.159 13.7177C38.79 13.3909 37.0315 13.5651 35.7212 14.1573C35.4888 14.2624 35.2131 14.2601 35.1087 14.1522V14.1522Z" fill="#949494"/>
</svg>
