<svg width="98" height="35" viewBox="0 0 98 35" fill="none" xmlns="http://www.w3.org/2000/svg">
<path d="M14.3459 14.9799C14.3459 12.5784 14.3259 11.256 14.284 9.90671C14.264 8.8545 14.1602 6.20962 14.102 5.80522C14.0663 5.52269 13.9373 5.26241 13.7375 5.07001C13.5378 4.87761 13.2801 4.76539 13.0096 4.75301H12.3542C12.2522 4.75301 12.2304 4.67252 12.2304 4.50961V3.83497C12.2304 3.70081 12.2504 3.64331 12.4124 3.64331C12.6382 3.64331 13.2936 3.72381 14.812 3.72381C16.0428 3.72381 16.5343 3.64331 16.7601 3.64331C16.9422 3.64331 16.9658 3.69697 16.9658 3.85988V4.50769C16.9658 4.64185 16.9458 4.7511 16.8639 4.7511H16.294C15.9445 4.7511 15.7478 5.20916 15.6786 6.18087C15.5348 7.98821 15.2071 14.0868 15.2071 17.6497V22.2648C15.2071 22.6692 15.1871 23.156 14.8994 23.156C14.7433 23.1559 14.5894 23.1167 14.4505 23.0417C14.3115 22.9667 14.1915 22.8581 14.1002 22.7248C13.7506 22.2936 12.7474 20.8638 11.5167 18.9472L8.00285 13.4677C7.65329 12.9272 4.82402 8.29294 4.36158 7.39598H4.19773V12.8429C4.19773 15.0834 4.37979 18.401 4.40346 19.4264C4.44533 20.9922 4.8131 21.801 5.6779 21.801H6.18222C6.32605 21.801 6.34607 21.8815 6.34607 22.0444V22.6922C6.34607 22.8532 6.32605 22.9088 6.18222 22.9088C5.97649 22.9088 4.74756 22.8283 3.78262 22.8283C3.14722 22.8283 1.73259 22.9088 1.52686 22.9088C1.44493 22.9088 1.4249 22.8551 1.4249 22.6654V21.9639C1.4249 21.8834 1.44493 21.8029 1.5487 21.8029H2.26785C2.71937 21.8029 3.04708 20.9386 3.14904 19.1312C3.16907 18.6176 3.3311 14.3014 3.3311 10.3149V7.88279C3.3311 6.29011 2.59193 4.77984 1.56691 4.75301L1.05349 4.72618C0.951535 4.72618 0.929688 4.61885 0.929688 4.53452V3.80814C0.929688 3.70081 0.949714 3.64714 1.05349 3.64714C1.15727 3.64714 1.3193 3.67398 1.70892 3.67398C2.09853 3.67398 2.77581 3.72764 3.84088 3.72764C4.53818 3.72764 5.15356 3.67398 5.39934 3.67398C5.52056 3.66925 5.64068 3.69963 5.74662 3.76181C5.85256 3.824 5.94026 3.91559 6.00015 4.02663L10.7575 11.693L14.264 17.4427H14.3459V14.9799Z" fill="#949494"/>
<path d="M23.3731 12.4923C24.3162 12.4923 25.2192 12.4119 25.465 12.3314C25.8145 12.224 26.1004 11.9806 26.4081 11.4957C26.681 10.9816 26.8421 10.4101 26.8796 9.82255C26.8796 9.63089 26.9415 9.57914 27.0435 9.57914L27.5897 9.65964C27.6916 9.68647 27.7717 9.7133 27.7535 9.87621C27.6916 10.3343 27.6916 11.7372 27.6916 12.6821C27.6916 13.8972 27.7735 15.1909 27.8154 15.7582C27.8354 15.9192 27.7535 15.9499 27.6516 15.9748L27.16 16.1089C27.0781 16.1358 27.0362 16.0821 26.9961 15.8924C26.8932 15.4233 26.7562 14.9633 26.5865 14.5163C26.4776 14.2798 26.3196 14.0721 26.1243 13.9086C25.9289 13.745 25.7011 13.6298 25.4577 13.5714C24.7689 13.4515 24.0711 13.3989 23.3731 13.4142V15.0337C23.3731 16.4903 23.475 19.1084 23.475 19.5933C23.475 20.9962 23.7008 21.483 23.9666 21.644C24.2743 21.805 24.6639 21.8874 25.6889 21.8874C26.0385 21.8874 26.8996 21.8606 27.3275 21.8069C27.9238 21.6918 28.4697 21.3797 28.886 20.9157C29.4194 20.3408 30.5682 18.6752 30.9779 18.0294C31.0598 17.922 31.1217 17.8952 31.1836 17.9489L31.535 18.2057C31.5694 18.2273 31.596 18.2602 31.6108 18.2994C31.6256 18.3385 31.6278 18.3817 31.6169 18.4223L30.6938 22.4969C30.6776 22.6103 30.6229 22.7137 30.54 22.788C30.457 22.8624 30.3513 22.9026 30.2423 22.9013C30.1404 22.9013 29.6961 22.8745 28.3762 22.8476C27.0562 22.8208 24.8696 22.8208 21.3212 22.8208C20.562 22.8208 19.9885 22.8476 19.5789 22.8476C19.1692 22.8476 18.8816 22.9013 18.6977 22.9013C18.5539 22.9013 18.5156 22.8208 18.5156 22.6042V22.0293C18.5156 21.8683 18.5775 21.7859 18.7214 21.7859H19.3367C20.2798 21.7859 20.3617 21.5942 20.3617 20.6532V11.6299C20.3617 9.3894 20.3199 6.07179 20.2998 5.80156C20.2179 4.93718 20.0122 4.74935 19.4587 4.74935H18.6558C18.5739 4.74935 18.5539 4.66886 18.5539 4.47911V3.83131C18.5539 3.75081 18.5739 3.63965 18.6977 3.63965C19.1492 3.63965 19.8665 3.72015 21.7327 3.72015L28.9315 3.69331C29.2592 3.69331 29.6488 3.63965 29.7526 3.63965C29.791 3.63575 29.8294 3.64748 29.8599 3.67243C29.8903 3.69737 29.9106 3.73365 29.9164 3.77381C29.9984 4.15713 30.6756 7.84847 30.7576 8.11871C30.7994 8.25287 30.7994 8.31036 30.6957 8.38894L30.368 8.60552C30.286 8.65918 30.1859 8.63235 30.1222 8.49819C30.0202 8.28162 28.1741 5.8533 27.7025 5.47574C27.2711 5.125 26.6976 4.77427 26.1441 4.74744L23.4368 4.64011L23.3731 12.4923Z" fill="#949494"/>
<path d="M38.3038 4.96492H37.5864C36.931 4.96492 35.7002 4.99175 34.8391 5.39615C34.3876 5.82738 33.4864 7.47373 32.9729 8.44544C32.911 8.5796 32.8491 8.66201 32.7672 8.63709L32.3157 8.42052C32.2338 8.39369 32.2137 8.25953 32.2338 8.17712C32.4595 7.04441 33.1441 3.48149 33.2187 2.94293C33.2806 2.59219 33.3826 2.48486 33.5264 2.48486C33.6702 2.48486 33.7321 2.59219 33.916 2.88926C34.1418 3.27258 34.5314 3.51024 35.2688 3.5639C36.3611 3.6444 37.2168 3.72489 39.3506 3.72489H40.5395C42.7752 3.72489 43.6564 3.61756 44.5176 3.5639C44.9691 3.53707 45.7684 3.21316 46.0141 2.88926C46.2199 2.61902 46.3419 2.48486 46.4857 2.48486C46.6295 2.48486 46.6914 2.59219 46.7315 2.91609L47.3468 8.28253C47.3592 8.32701 47.358 8.37448 47.3433 8.41818C47.3286 8.46188 47.3012 8.49959 47.2649 8.52593L46.8334 8.74251C46.7515 8.76934 46.7096 8.68884 46.6277 8.4991C46.1762 7.52739 45.3769 6.12445 44.8635 5.47665C44.3501 5.07225 42.5258 4.96301 42.0543 4.96301H41.3788V12.3859C41.3788 12.7692 41.3788 20.3187 41.3988 20.7231C41.4407 21.3977 41.6046 21.8021 42.0961 21.8021H43.0192C43.2013 21.8021 43.2249 21.8826 43.2249 22.0723V22.6933C43.2249 22.8275 43.2049 22.9099 43.0192 22.9099C42.8335 22.9099 42.158 22.8294 39.8822 22.8294C37.7084 22.8294 36.8472 22.9099 36.5596 22.9099C36.3957 22.9099 36.3775 22.8026 36.3775 22.586V22.0723C36.3775 21.8807 36.3975 21.8021 36.5214 21.8021H37.5664C37.976 21.8021 38.2218 21.4782 38.2637 20.9933C38.3056 20.4183 38.3056 12.1425 38.3056 11.6289L38.3038 4.96492Z" fill="#949494"/>
<path d="M50.8998 20.7541C49.3814 18.9736 48.6641 15.8706 48.6641 13.5496C48.6641 10.7706 49.3413 8.25987 50.776 6.23788C51.9448 4.59153 53.6471 3.32275 56.1906 3.32275C58.0567 3.32275 59.5951 3.94373 60.3125 4.45545C60.6001 4.64711 60.7021 4.61645 60.744 4.42862L60.9078 3.75399C60.9479 3.59299 60.9898 3.59299 61.2974 3.59299C61.6051 3.59299 61.6452 3.64282 61.6452 4.02614C61.6452 4.53978 62.0093 9.12617 62.1167 9.93497C62.1368 10.1266 62.1167 10.2589 62.0148 10.2857L61.5633 10.4467C61.4613 10.5004 61.3812 10.393 61.3175 10.1496C61.0225 8.83488 60.4638 7.60176 59.6789 6.53303C58.7941 5.39841 57.7144 4.50912 56.1487 4.50912C53.1628 4.50912 51.8884 8.09696 51.9048 12.0911C51.9048 13.7911 52.2689 17.1107 53.7254 19.1346C55.0581 20.9419 56.227 21.1585 56.9243 21.1585C59.262 21.1585 61.0061 19.7555 61.7635 18.2721C61.8655 18.0555 61.9693 17.9482 62.0712 18.0555L62.4208 18.4599C62.4827 18.5136 62.5027 18.6209 62.4208 18.7838C61.2319 21.0512 59.2419 23.2361 56.3508 23.2361C53.6271 23.2361 52.1925 22.2644 50.8998 20.7541Z" fill="#949494"/>
<path d="M66.9759 21.4777C65.5194 20.3182 63.9609 17.403 63.9609 13.4626C63.9589 11.0745 64.6223 8.73816 65.869 6.74301C67.6732 3.85664 69.9909 3.31616 71.837 3.31616C73.5393 3.31616 75.1141 3.6669 76.8401 5.4474C78.3986 7.06692 79.6493 9.7923 79.6493 13.5162C79.65 15.5972 79.1159 17.6396 78.1036 19.427C76.7709 21.6119 75.0268 23.2314 71.7878 23.2314C70.0438 23.2227 68.3517 22.606 66.9759 21.4777V21.4777ZM76.4305 13.7328C76.4305 7.82397 73.4774 4.58494 71.7551 4.58494C71.3454 4.58494 70.3204 4.45078 69.0678 6.04154C67.8571 7.55181 67.2472 10.3864 67.2472 12.5982C67.2472 19.4979 70.2622 21.9607 71.9644 21.9607C75.7532 21.9626 76.4305 15.9445 76.4305 13.7328Z" fill="#949494"/>
<path d="M85.2493 21.4777C83.7928 20.3182 82.2344 17.4031 82.2344 13.4626C82.2324 11.0745 82.8958 8.73821 84.1424 6.74301C85.9467 3.85664 88.2643 3.31616 90.1104 3.31616C91.8127 3.31616 93.3876 3.6669 95.1135 5.4474C96.672 7.06692 97.9228 9.7923 97.9228 13.5162C97.9254 15.5958 97.3938 17.6375 96.3844 19.425C95.0516 21.61 93.3075 23.2295 90.0686 23.2295C88.3223 23.223 86.6274 22.6069 85.2493 21.4777V21.4777ZM94.7039 13.7328C94.7039 7.82397 91.7508 4.58494 90.0285 4.58494C89.6189 4.58494 88.5939 4.45078 87.3413 6.04154C86.1305 7.55181 85.5206 10.3864 85.5206 12.5982C85.5206 19.4979 88.5356 21.9607 90.2379 21.9607C94.0266 21.9626 94.7039 15.9445 94.7039 13.7328Z" fill="#949494"/>
<path d="M1.67969 25.7866H2.83397L5.45386 30.8114H5.47025V25.7866H6.32048V32.0264H5.2281L2.54085 26.8962H2.52992V32.0264H1.67969V25.7866Z" fill="#949494"/>
<path d="M11.0384 31.8381L10.7926 31.932C10.7076 31.9652 10.613 31.9965 10.5086 32.0259C10.3888 32.0591 10.2672 32.0847 10.1445 32.1026C9.98816 32.1244 9.83059 32.1346 9.67292 32.1332C9.33258 32.1416 8.99387 32.0811 8.67521 31.955C8.40943 31.8468 8.17084 31.6757 7.97791 31.4549C7.78856 31.2302 7.64813 30.9647 7.56645 30.6769C7.47241 30.3496 7.42636 30.009 7.4299 29.6671C7.42605 29.3508 7.47473 29.0363 7.57373 28.7377C7.66368 28.4687 7.80355 28.2212 7.98519 28.0096C8.16378 27.8034 8.38232 27.6401 8.62606 27.5305C8.88934 27.4142 9.17256 27.3561 9.45809 27.36C9.77165 27.3472 10.0836 27.4129 10.3684 27.5516C10.6045 27.6759 10.8064 27.862 10.9546 28.092C11.1095 28.3408 11.2176 28.6185 11.2733 28.9102C11.3405 29.2453 11.3734 29.5871 11.3716 29.9296H8.27649C8.27381 30.1414 8.31287 30.3515 8.39119 30.5466C8.46459 30.7269 8.5717 30.8898 8.70616 31.0257C8.83901 31.1593 8.99468 31.2653 9.16496 31.338C9.33817 31.413 9.52387 31.4508 9.71115 31.4491C9.84722 31.4483 9.98278 31.4316 10.1153 31.3993C10.2478 31.3683 10.3785 31.3293 10.5068 31.2824C10.6178 31.2425 10.7256 31.1932 10.829 31.1349C10.9047 31.093 10.9771 31.045 11.0457 30.9912L11.0384 31.8381ZM10.5195 29.3087C10.5203 29.1416 10.4957 28.9753 10.4467 28.8163C10.4021 28.6684 10.3317 28.5307 10.2391 28.41C10.147 28.293 10.0305 28.1999 9.89868 28.1379C9.75425 28.0709 9.59772 28.0375 9.43988 28.0402C9.2646 28.0348 9.09076 28.075 8.93374 28.1571C8.79964 28.2307 8.6813 28.3324 8.586 28.456C8.49345 28.5773 8.42195 28.7148 8.37481 28.8623C8.32734 29.0071 8.29439 29.1567 8.27649 29.3087H10.5195Z" fill="#949494"/>
<path d="M13.3668 29.6376L11.9576 27.4646H12.9517L13.8948 29.0915L14.8542 27.4646H15.7464L14.3536 29.6376L15.8829 32.0252H14.8961L13.8292 30.2354L12.7551 32.0233H11.8047L13.3668 29.6376Z" fill="#949494"/>
<path d="M18.9221 28.1449H17.7751V30.6362C17.7676 30.7465 17.7815 30.8572 17.8159 30.9617C17.8503 31.0661 17.9046 31.1621 17.9754 31.2437C18.0368 31.3095 18.1103 31.3616 18.1913 31.3968C18.2723 31.4321 18.3593 31.4498 18.4469 31.4488C18.555 31.4513 18.6628 31.4344 18.7655 31.399C18.8445 31.371 18.9203 31.3337 18.9913 31.2878V32.0045C18.9003 32.0339 18.7971 32.062 18.6818 32.0889C18.5621 32.1159 18.4401 32.1293 18.3177 32.1291C17.9638 32.1526 17.6139 32.0402 17.3327 31.8129C17.09 31.6008 16.9686 31.2655 16.9686 30.8068V28.143H16V27.4627H16.9759V26.4087L17.7733 26.1404V27.4627H18.9203L18.9221 28.1449Z" fill="#949494"/>
<path d="M22.3281 25.7866H25.649V26.5723H23.1784V28.3968H25.4287V29.1825H23.1784V31.2407H25.6508V32.0264H22.3281V25.7866Z" fill="#949494"/>
<path d="M29.6351 28.2334C29.4896 28.1703 29.3391 28.1209 29.1854 28.0858C29.0484 28.0541 28.9087 28.0374 28.7685 28.036C28.5636 28.0324 28.3611 28.0818 28.1786 28.1797C28.0084 28.2728 27.8593 28.4036 27.7416 28.563C27.6209 28.7279 27.5291 28.9141 27.4703 29.1129C27.4084 29.3167 27.3771 29.5294 27.3775 29.7433C27.3777 29.9487 27.4046 30.1531 27.4576 30.3508C27.5093 30.5492 27.5958 30.7357 27.7125 30.9007C27.8316 31.0679 27.9854 31.2042 28.1622 31.2993C28.3669 31.4055 28.5931 31.4574 28.8213 31.4507C28.9691 31.4488 29.116 31.4263 29.2582 31.3836C29.4068 31.3424 29.5486 31.2778 29.6788 31.192L29.7389 31.9431C29.5774 32.0259 29.4038 32.079 29.2254 32.1003C29.0634 32.1198 28.9006 32.1301 28.7375 32.1309C28.4294 32.1342 28.1242 32.0689 27.8418 31.9393C27.5779 31.8208 27.3395 31.6474 27.1408 31.4296C26.943 31.2079 26.7883 30.9475 26.6857 30.6631C26.5767 30.3681 26.5217 30.0541 26.5236 29.7376C26.5199 29.4108 26.573 29.0862 26.6802 28.7795C26.7788 28.4978 26.932 28.2407 27.1299 28.0245C27.328 27.8111 27.5652 27.6422 27.8272 27.5282C28.1161 27.4048 28.4258 27.3441 28.7375 27.35C28.9129 27.3511 29.0878 27.3691 29.26 27.4037C29.4121 27.4301 29.5615 27.4718 29.7061 27.5282L29.6351 28.2334Z" fill="#949494"/>
<path d="M30.3361 29.7463C30.3324 29.4196 30.3855 29.0949 30.4927 28.7882C30.5913 28.5065 30.7444 28.2494 30.9424 28.0333C31.1405 27.8198 31.3777 27.651 31.6397 27.537C32.2198 27.2989 32.8638 27.2989 33.4439 27.537C33.7067 27.6495 33.9442 27.8185 34.1412 28.0333C34.3371 28.2504 34.4888 28.5073 34.5873 28.7882C34.6945 29.0949 34.7476 29.4196 34.7439 29.7463C34.7457 30.0628 34.6907 30.3768 34.5818 30.6719C34.4798 30.9553 34.3272 31.2154 34.1321 31.4384C33.9359 31.6584 33.6985 31.8332 33.4348 31.9519C33.1515 32.0758 32.8477 32.1395 32.5409 32.1395C32.2341 32.1395 31.9303 32.0758 31.647 31.9519C31.3841 31.8293 31.1476 31.652 30.9515 31.4307C30.7537 31.2089 30.5991 30.9485 30.4963 30.6642C30.3889 30.3715 30.3345 30.0602 30.3361 29.7463V29.7463ZM31.1845 29.7463C31.1847 29.9517 31.2117 30.1561 31.2646 30.3538C31.3157 30.5507 31.3988 30.7368 31.5104 30.9037C31.6205 31.0681 31.7642 31.2043 31.931 31.3023C32.1188 31.4081 32.3298 31.4603 32.5427 31.4537C32.7527 31.4594 32.9605 31.4073 33.1454 31.3023C33.3122 31.2043 33.4559 31.0681 33.5659 30.9037C33.6775 30.7368 33.7606 30.5507 33.8117 30.3538C33.8646 30.1561 33.8916 29.9517 33.8918 29.7463C33.8921 29.5324 33.8608 29.3197 33.799 29.1159C33.7404 28.9185 33.6512 28.7327 33.535 28.566C33.4226 28.4064 33.2777 28.2754 33.1108 28.1827C32.9336 28.0893 32.7382 28.0407 32.54 28.0407C32.3418 28.0407 32.1464 28.0893 31.9692 28.1827C31.8033 28.2769 31.6586 28.4076 31.545 28.566C31.4265 28.7317 31.3359 28.9178 31.2774 29.1159C31.2155 29.3197 31.1842 29.5324 31.1845 29.7463V29.7463Z" fill="#949494"/>
<path d="M35.7674 27.4658H36.5412V28.1901H36.5576C36.6787 27.9256 36.8789 27.7102 37.1275 27.5769C37.3892 27.4307 37.6814 27.3556 37.9777 27.3585C38.5384 27.3585 38.9487 27.5316 39.2084 27.8778C39.4682 28.224 39.5987 28.7037 39.5999 29.3168V32.0244H38.8024V29.6656C38.8254 29.256 38.7587 28.8462 38.6076 28.468C38.5353 28.333 38.4291 28.2216 38.3007 28.1459C38.1722 28.0702 38.0265 28.0331 37.8794 28.0387C37.675 28.0334 37.4725 28.0807 37.2895 28.1767C37.1246 28.2671 36.9833 28.3987 36.878 28.5599C36.7638 28.7404 36.6828 28.9419 36.6395 29.154C36.5863 29.4055 36.5607 29.6627 36.5631 29.9204V32.0283H35.7656L35.7674 27.4658Z" fill="#949494"/>
<path d="M40.6252 29.7463C40.6215 29.4196 40.6746 29.0949 40.7818 28.7882C40.8803 28.5065 41.0335 28.2494 41.2315 28.0333C41.4295 27.8198 41.6668 27.651 41.9288 27.537C42.5089 27.2989 43.1529 27.2989 43.733 27.537C43.9957 27.6495 44.2332 27.8185 44.4303 28.0333C44.6261 28.2504 44.7779 28.5073 44.8764 28.7882C44.9836 29.0949 45.0366 29.4196 45.0329 29.7463C45.0348 30.0628 44.9798 30.3768 44.8709 30.6719C44.7689 30.9553 44.6162 31.2154 44.4212 31.4384C44.225 31.6584 43.9875 31.8332 43.7239 31.9519C43.4406 32.0758 43.1368 32.1395 42.83 32.1395C42.5232 32.1395 42.2194 32.0758 41.936 31.9519C41.6732 31.8318 41.436 31.6571 41.2387 31.4384C41.0409 31.2166 40.8863 30.9562 40.7836 30.6719C40.6758 30.3766 40.6221 30.0626 40.6252 29.7463V29.7463ZM41.4736 29.7463C41.4738 29.9517 41.5007 30.1561 41.5537 30.3538C41.6047 30.5507 41.6879 30.7368 41.7995 30.9037C41.9095 31.0681 42.0533 31.2043 42.2201 31.3023C42.4079 31.4081 42.6188 31.4603 42.8318 31.4537C43.0418 31.4594 43.2495 31.4073 43.4344 31.3023C43.6012 31.2043 43.7449 31.0681 43.855 30.9037C43.9665 30.7368 44.0497 30.5507 44.1008 30.3538C44.1537 30.1561 44.1806 29.9517 44.1809 29.7463C44.1812 29.5324 44.1498 29.3197 44.088 29.1159C44.0295 28.9185 43.9403 28.7327 43.824 28.566C43.7117 28.4064 43.5667 28.2754 43.3998 28.1827C43.2226 28.0893 43.0272 28.0407 42.8291 28.0407C42.6309 28.0407 42.4355 28.0893 42.2583 28.1827C42.0924 28.2769 41.9477 28.4076 41.8341 28.566C41.7155 28.7317 41.625 28.9178 41.5664 29.1159C41.5046 29.3197 41.4733 29.5324 41.4736 29.7463V29.7463Z" fill="#949494"/>
<path d="M46.0547 27.4648H46.803V28.1259H46.8194C46.9509 27.8794 47.1451 27.6764 47.3801 27.5395C47.6331 27.4067 47.9131 27.341 48.1958 27.3479C48.4485 27.3493 48.6962 27.4221 48.9131 27.5587C49.1537 27.7137 49.3352 27.9523 49.4265 28.2332C49.4952 28.0789 49.5902 27.9393 49.7069 27.8212C49.8161 27.7121 49.9385 27.6187 50.071 27.5434C50.1826 27.4815 50.3013 27.4351 50.4242 27.4054C50.5328 27.3779 50.6439 27.3631 50.7556 27.3613C50.9956 27.3538 51.2344 27.3995 51.4565 27.4955C51.6361 27.577 51.7946 27.7025 51.9189 27.8615C52.0408 28.0236 52.1289 28.211 52.1775 28.4114C52.2328 28.638 52.2597 28.8712 52.2576 29.1051V32.0235H51.4602V29.3063C51.4602 29.1595 51.4505 29.0128 51.431 28.8675C51.4133 28.7266 51.3746 28.5895 51.3163 28.4612C51.2612 28.341 51.1794 28.2365 51.0778 28.1565C50.9635 28.072 50.8259 28.0296 50.6864 28.0358C50.5028 28.0304 50.3215 28.0803 50.1639 28.1795C50.0188 28.2759 49.8977 28.4073 49.8107 28.5628C49.7162 28.7301 49.6486 28.9127 49.6104 29.1032C49.5676 29.309 49.5463 29.5191 49.5467 29.7298V32.0292H48.7474V29.3063C48.7474 29.1595 48.7377 29.0128 48.7183 28.8675C48.7005 28.7266 48.6618 28.5895 48.6036 28.4612C48.5485 28.341 48.4667 28.2364 48.3651 28.1565C48.2508 28.072 48.1132 28.0296 47.9736 28.0358C47.79 28.0303 47.6087 28.0802 47.4511 28.1795C47.306 28.2758 47.1849 28.4072 47.0979 28.5628C47.0036 28.7302 46.9359 28.9127 46.8976 29.1032C46.8548 29.309 46.8335 29.5191 46.8339 29.7298V32.0292H46.0547V27.4648Z" fill="#949494"/>
<path d="M53.2564 33.2598C53.3162 33.2799 53.377 33.2965 53.4385 33.3096C53.5043 33.3248 53.5714 33.3325 53.6387 33.3326C53.8016 33.3374 53.9605 33.2787 54.0848 33.1678C54.2017 33.0633 54.3019 32.9397 54.3816 32.8018C54.452 32.6824 54.5065 32.5535 54.5436 32.4185C54.5649 32.3484 54.5807 32.2766 54.5909 32.2038C54.5844 32.1283 54.5659 32.0545 54.5363 31.9854L54.438 31.7209L52.9688 27.4646H53.8445L54.9988 31.2399H55.0151L56.204 27.4665H57.0106L55.4139 32.1234C55.3398 32.3431 55.2603 32.5654 55.1754 32.7903C55.095 33.0048 54.9912 33.2087 54.8658 33.3978C54.7458 33.5777 54.5906 33.7287 54.4107 33.8404C54.2086 33.9596 53.9795 34.0186 53.748 34.011C53.6426 34.0127 53.5372 34.005 53.433 33.988L53.2036 33.9478L53.2564 33.2598Z" fill="#949494"/>
<path d="M60.1815 25.7866H61.5834L63.4423 30.9724L65.2629 25.7866H66.6648V32.0264H65.8164V26.6279H65.8L63.841 32.0264H63.009L61.0463 26.626H61.0299V32.0264H60.1797L60.1815 25.7866Z" fill="#949494"/>
<path d="M68.285 27.7877C68.4909 27.6589 68.7102 27.5554 68.9386 27.4792C69.189 27.3967 69.45 27.356 69.7124 27.3585C70.335 27.3585 70.7811 27.5163 71.0505 27.8318C71.32 28.1473 71.4547 28.6181 71.4547 29.2441V31.1296C71.4547 31.3915 71.4547 31.5895 71.4547 31.7236C71.4572 31.8237 71.4658 31.9236 71.4802 32.0226H70.7319V31.4285H70.7155C70.6625 31.511 70.6015 31.5874 70.5335 31.6566C70.4475 31.7427 70.3521 31.818 70.2495 31.8808C70.1288 31.9541 70.0005 32.0126 69.8671 32.0551C69.7088 32.1045 69.5443 32.1284 69.3792 32.126C69.1632 32.128 68.9478 32.101 68.7383 32.0455C68.5548 31.9981 68.3825 31.9113 68.2322 31.7907C68.0899 31.6739 67.9773 31.5218 67.9045 31.348C67.8234 31.1444 67.7843 30.9249 67.7898 30.7042C67.7811 30.4494 67.8514 30.1985 67.9901 29.9895C68.122 29.7999 68.2916 29.643 68.4871 29.5296C68.6913 29.4108 68.9118 29.3261 69.1407 29.2785C69.3586 29.2299 69.5806 29.2042 69.8034 29.2019H70.2276C70.349 29.2019 70.4904 29.2076 70.6518 29.2191C70.6735 28.9034 70.5912 28.5894 70.4188 28.33C70.2634 28.1307 69.9849 28.0311 69.5831 28.0311C69.3528 28.0314 69.1243 28.0736 68.9077 28.1556C68.696 28.2317 68.4988 28.3465 68.3251 28.4948L68.285 27.7877ZM70.6518 29.8534C70.5669 29.8534 70.4819 29.8534 70.3969 29.8534C70.312 29.8534 70.227 29.8534 70.142 29.8534C70.034 29.8534 69.895 29.8611 69.7251 29.8764C69.5556 29.8911 69.3886 29.9284 69.2281 29.9875C69.0728 30.0433 68.9306 30.1335 68.8112 30.252C68.7503 30.3137 68.7027 30.3884 68.6713 30.4709C68.6399 30.5535 68.6255 30.6422 68.6291 30.731C68.627 30.8424 68.6534 30.9522 68.7056 31.0491C68.7518 31.1378 68.8135 31.2165 68.8876 31.281C68.9651 31.3445 69.0526 31.3932 69.1462 31.4247C69.2366 31.4567 69.3312 31.4735 69.4265 31.4745C69.5914 31.487 69.7568 31.4627 69.9121 31.4033C70.0674 31.3439 70.209 31.2506 70.3277 31.1296C70.5322 30.8987 70.642 30.5924 70.6336 30.2769L70.6518 29.8534Z" fill="#949494"/>
<path d="M76.6003 31.8285C76.6003 32.5197 76.4219 33.0563 76.0651 33.4383C75.7082 33.8203 75.142 34.0119 74.3664 34.0132C74.2535 34.0132 74.1419 34.0087 74.0314 33.9998C73.913 33.9895 73.7951 33.9729 73.6782 33.9499C73.5568 33.9257 73.4252 33.8944 73.2831 33.856C73.1411 33.8177 72.984 33.7653 72.8116 33.6989L72.8972 32.9208C73.0501 32.9924 73.1903 33.0563 73.3177 33.1125C73.4365 33.1637 73.5581 33.2072 73.6819 33.2428C73.8015 33.2755 73.9232 33.2992 74.046 33.3137C74.1814 33.3294 74.3176 33.3371 74.4538 33.3367C74.6378 33.3477 74.8218 33.3158 74.9927 33.2433C75.1636 33.1707 75.3172 33.0593 75.4424 32.917C75.6926 32.5937 75.8186 32.1834 75.7956 31.7672V31.3206H75.7792C75.6137 31.5559 75.3911 31.7399 75.1347 31.8534C74.8799 31.9684 74.6055 32.0277 74.3282 32.0278C74.0458 32.0321 73.7664 31.9665 73.5125 31.8362C73.2865 31.7196 73.089 31.5497 72.9354 31.3398C72.7799 31.1259 72.6632 30.8835 72.5913 30.625C72.5139 30.3494 72.4752 30.0634 72.4766 29.776C72.4768 29.481 72.5166 29.1874 72.5949 28.9041C72.671 28.6238 72.7943 28.3603 72.9591 28.126C73.1199 27.8966 73.3254 27.7058 73.5617 27.5664C73.8237 27.4178 74.118 27.3438 74.4156 27.3518C74.7308 27.3359 75.0445 27.4066 75.3259 27.5568C75.5472 27.691 75.7258 27.891 75.8393 28.1318H75.8557V27.4514H76.5949L76.6003 31.8285ZM74.5357 31.3456C74.7134 31.3476 74.8892 31.3063 75.0492 31.2248C75.2031 31.1456 75.339 31.0325 75.4479 30.8933C75.5615 30.7468 75.649 30.58 75.7064 30.4008C75.7695 30.2065 75.8009 30.0024 75.7993 29.7971C75.8035 29.5728 75.7814 29.3488 75.7337 29.1302C75.6875 28.9298 75.6067 28.7401 75.4952 28.5706C75.3909 28.4134 75.2547 28.2825 75.0965 28.1873C74.9295 28.09 74.7412 28.0405 74.5503 28.0436C74.3622 28.0389 74.177 28.0936 74.0187 28.2008C73.8686 28.3056 73.7414 28.4428 73.6454 28.6032C73.5441 28.772 73.4679 28.9562 73.4197 29.1494C73.3697 29.343 73.344 29.5428 73.3432 29.7435C73.3423 29.9512 73.3712 30.158 73.4288 30.3567C73.4811 30.5405 73.5616 30.714 73.6673 30.8703C73.7666 31.0165 73.8961 31.137 74.046 31.2229C74.1977 31.3059 74.3666 31.3481 74.5376 31.3456H74.5357Z" fill="#949494"/>
<path d="M78.1366 27.7877C78.3425 27.6589 78.5618 27.5554 78.7902 27.4792C79.0405 27.3967 79.3016 27.356 79.5639 27.3585C80.1866 27.3585 80.6327 27.5163 80.9021 27.8318C81.1716 28.1473 81.3063 28.6181 81.3063 29.2441V31.1296C81.3063 31.3915 81.3063 31.5895 81.3063 31.7236C81.3088 31.8237 81.3173 31.9236 81.3318 32.0226H80.5835V31.4285H80.5671C80.5141 31.511 80.4531 31.5874 80.385 31.6566C80.299 31.7427 80.2037 31.818 80.101 31.8808C79.9803 31.9541 79.8521 32.0126 79.7187 32.0551C79.5604 32.1045 79.3959 32.1284 79.2308 32.126C79.0148 32.128 78.7994 32.101 78.5899 32.0455C78.4063 31.9981 78.2341 31.9113 78.0838 31.7907C77.9415 31.6739 77.8289 31.5218 77.756 31.348C77.6749 31.1444 77.6358 30.9249 77.6413 30.7042C77.6326 30.4494 77.7029 30.1985 77.8416 29.9895C77.9735 29.7999 78.1432 29.643 78.3386 29.5296C78.5429 29.4108 78.7634 29.3261 78.9923 29.2785C79.2102 29.2299 79.4322 29.2042 79.655 29.2019H80.0792C80.2005 29.2019 80.342 29.2076 80.5034 29.2191C80.5251 28.9034 80.4428 28.5894 80.2703 28.33C80.115 28.1307 79.8364 28.0311 79.4347 28.0311C79.2044 28.0314 78.9759 28.0736 78.7592 28.1556C78.5476 28.2317 78.3503 28.3465 78.1766 28.4948L78.1366 27.7877ZM80.5034 29.8534C80.4184 29.8534 80.3335 29.8534 80.2485 29.8534C80.1635 29.8534 80.0786 29.8534 79.9936 29.8534C79.8856 29.8534 79.7466 29.8611 79.5767 29.8764C79.4072 29.8911 79.2402 29.9284 79.0796 29.9875C78.9243 30.0433 78.7822 30.1335 78.6627 30.252C78.6019 30.3137 78.5542 30.3884 78.5228 30.4709C78.4914 30.5535 78.4771 30.6422 78.4807 30.731C78.4786 30.8424 78.505 30.9522 78.5571 31.0491C78.6033 31.1378 78.6651 31.2165 78.7392 31.281C78.8167 31.3445 78.9042 31.3932 78.9977 31.4247C79.0881 31.4567 79.1827 31.4735 79.2781 31.4745C79.4429 31.487 79.6084 31.4627 79.7637 31.4033C79.919 31.3439 80.0606 31.2506 80.1793 31.1296C80.3837 30.8987 80.4936 30.5924 80.4852 30.2769L80.5034 29.8534Z" fill="#949494"/>
<path d="M82.2969 31.2913L84.793 28.1449H82.4189V27.4646H85.7233V28.1985L83.2254 31.3449H85.8162V32.0252H82.2969V31.2913Z" fill="#949494"/>
<path d="M87.7606 26.4509H86.8594V25.4927H87.7606V26.4509ZM86.9104 27.4704H87.7078V32.0276H86.9104V27.4704Z" fill="#949494"/>
<path d="M89.1286 27.4658H89.9024V28.1901H89.9188C90.0399 27.9256 90.2401 27.7102 90.4887 27.5769C90.7504 27.4307 91.0426 27.3556 91.3389 27.3585C91.8996 27.3585 92.3099 27.5316 92.5696 27.8778C92.8294 28.224 92.9599 28.7037 92.9611 29.3168V32.0244H92.1636V29.6656C92.1866 29.256 92.1199 28.8462 91.9688 28.468C91.8965 28.333 91.7903 28.2216 91.6619 28.1459C91.5334 28.0702 91.3877 28.0331 91.2406 28.0387C91.0362 28.0334 90.8337 28.0807 90.6507 28.1767C90.4858 28.2671 90.3445 28.3987 90.2392 28.5599C90.1247 28.7403 90.0438 28.9418 90.0007 29.154C89.9475 29.4055 89.9218 29.6627 89.9243 29.9204V32.0283H89.125L89.1286 27.4658Z" fill="#949494"/>
<path d="M97.6087 31.8381L97.3629 31.932C97.278 31.9652 97.1833 31.9965 97.0789 32.0259C96.9591 32.0591 96.8375 32.0847 96.7148 32.1026C96.5585 32.1244 96.4009 32.1346 96.2432 32.1332C95.9029 32.1416 95.5642 32.0811 95.2455 31.955C94.9798 31.8467 94.7412 31.6756 94.5482 31.4549C94.3589 31.2302 94.2185 30.9647 94.1368 30.6769C94.0427 30.3496 93.9966 30.009 94.0002 29.6671C93.9964 29.3508 94.0451 29.0363 94.144 28.7377C94.2341 28.4687 94.3739 28.2212 94.5555 28.0096C94.734 27.8034 94.9526 27.64 95.1964 27.5305C95.4596 27.4141 95.7429 27.3561 96.0284 27.36C96.342 27.3472 96.6539 27.4129 96.9387 27.5516C97.1749 27.6759 97.3767 27.862 97.5249 28.092C97.6798 28.3408 97.7879 28.6185 97.8436 28.9102C97.9107 29.2453 97.9436 29.5871 97.9419 29.9296H94.8559C94.8532 30.1414 94.8923 30.3515 94.9706 30.5466C95.044 30.7269 95.1511 30.8899 95.2856 31.0257C95.4184 31.1593 95.5741 31.2653 95.7444 31.338C95.9176 31.413 96.1033 31.4508 96.2906 31.4491C96.4266 31.4484 96.5622 31.4317 96.6947 31.3993C96.8273 31.3683 96.958 31.3293 97.0862 31.2824C97.1972 31.2425 97.305 31.1932 97.4084 31.1349C97.4841 31.093 97.5565 31.0449 97.6251 30.9912L97.6087 31.8381ZM97.0898 29.3087C97.0905 29.1416 97.0659 28.9753 97.017 28.8163C96.9724 28.6684 96.9021 28.5307 96.8094 28.41C96.7173 28.2931 96.6008 28.2 96.469 28.1379C96.3246 28.0709 96.168 28.0375 96.0102 28.0402C95.8349 28.0348 95.6611 28.075 95.504 28.1571C95.37 28.2307 95.2516 28.3324 95.1563 28.456C95.0631 28.5771 94.991 28.7147 94.9433 28.8623C94.8959 29.0071 94.8629 29.1567 94.845 29.3087H97.0898Z" fill="#949494"/>
</svg>
