<svg width="110" height="31" viewBox="0 0 110 31" fill="none" xmlns="http://www.w3.org/2000/svg">
<path d="M18.0032 30.573C17.9187 30.573 17.8495 30.4739 17.8495 30.3529C17.8495 30.2318 17.8795 30.0511 17.9161 29.9513C17.9527 29.8514 18.076 29.7698 18.1901 29.7698C18.3042 29.7698 18.3976 29.7879 18.3976 29.81C18.3976 29.8321 18.3434 30.0129 18.2772 30.2116C18.2111 30.4104 18.0878 30.573 18.0032 30.573ZM32.6333 30.573C32.5197 30.573 32.4268 30.5549 32.4268 30.5327C32.4268 30.5106 32.481 30.3299 32.5472 30.1311C32.6133 29.9324 32.7367 29.7698 32.8212 29.7698C32.9057 29.7698 32.9742 29.8343 32.9734 29.9132C32.9725 29.9921 32.9421 30.1728 32.9058 30.3148C32.8669 30.4667 32.7547 30.573 32.6333 30.573ZM2.51587 30.114H2.06662V28.9665V27.8191H2.70725C3.187 27.8191 3.39311 27.8714 3.52798 28.0274C3.62703 28.142 3.73913 28.3984 3.7771 28.5971C3.81506 28.7958 3.81435 29.1357 3.77552 29.3525C3.72175 29.6525 3.61672 29.7903 3.33502 29.9302C3.13157 30.0313 2.76296 30.114 2.51587 30.114ZM2.57067 29.8845C2.60677 29.8845 2.80406 29.8012 3.00908 29.6993C3.35612 29.5269 3.38186 29.4764 3.38186 28.9675C3.38186 28.6669 3.31993 28.3671 3.24424 28.3014C3.16855 28.2356 2.97127 28.1462 2.80583 28.1027L2.50503 28.0237V28.9541C2.50503 29.4658 2.53457 29.8845 2.57067 29.8845ZM4.79824 30.0904C4.59191 30.109 4.32445 30.0486 4.20389 29.9562C4.03473 29.8265 3.98717 29.6642 3.99559 29.245C4.00334 28.8592 4.06497 28.6571 4.20834 28.5473C4.31936 28.4624 4.54593 28.3928 4.71184 28.3928C4.8993 28.3928 5.07807 28.4894 5.18411 28.6478C5.27795 28.7881 5.35473 28.9946 5.35473 29.1068C5.35473 29.2721 5.26108 29.3108 4.86151 29.3108C4.50514 29.3108 4.36829 29.3567 4.36829 29.4761C4.36829 29.5671 4.42853 29.6804 4.50216 29.7281C4.57579 29.7757 4.77756 29.8034 4.95054 29.7896C5.16349 29.7726 5.25025 29.8117 5.21922 29.9106C5.19401 29.9909 5.00456 30.0718 4.79824 30.0904ZM4.6423 29.0813C4.80344 29.0813 4.91631 29.0155 4.91631 28.9215C4.91631 28.8335 4.84834 28.7343 4.76526 28.7009C4.68219 28.6676 4.55888 28.6982 4.49125 28.769C4.42363 28.8398 4.36829 28.939 4.36829 28.9895C4.36829 29.04 4.4916 29.0813 4.6423 29.0813V29.0813ZM6.45649 30.0968C6.099 30.1052 5.85622 30.0489 5.74407 29.9315C5.62856 29.8106 5.57393 29.535 5.57393 29.0731C5.57393 28.5449 5.61069 28.3928 5.73834 28.3928C5.86224 28.3928 5.90275 28.5322 5.90275 28.9583C5.90275 29.3246 5.96476 29.5888 6.07876 29.7082C6.21466 29.8504 6.28961 29.8622 6.40757 29.7597C6.50357 29.6763 6.56037 29.3975 6.56037 29.0099V28.3928H6.9312C7.20985 28.3928 7.31628 28.3358 7.35935 28.1633C7.39088 28.0371 7.47061 27.9338 7.53654 27.9338C7.60247 27.9338 7.65641 28.0371 7.65641 28.1633C7.65641 28.3163 7.72947 28.3928 7.87561 28.3928C7.99618 28.3928 8.09482 28.4445 8.09482 28.5076C8.09482 28.5707 7.9936 28.6223 7.86988 28.6223C7.66776 28.6223 7.64831 28.6825 7.67808 29.216L7.71121 29.8096L8.23728 29.8031C8.52662 29.7995 8.79789 29.7587 8.8401 29.7123C8.88231 29.666 8.82469 29.5696 8.71205 29.4981C8.59941 29.4266 8.40389 29.2839 8.27757 29.1808C8.07751 29.0177 8.06475 28.9548 8.17861 28.6932C8.28806 28.4417 8.38103 28.3928 8.75009 28.3928C9.07364 28.3928 9.19086 28.4398 9.19086 28.5693C9.19086 28.6919 9.10242 28.7357 8.90094 28.7127C8.74149 28.6945 8.59579 28.7313 8.57716 28.7944C8.55853 28.8575 8.71066 29.0209 8.91524 29.1575L9.28719 29.4057L9.36301 29.0444C9.40471 28.8456 9.51867 28.6193 9.61625 28.5415C9.71384 28.4638 9.97863 28.3985 10.2047 28.3965C10.5116 28.3938 10.6157 28.4398 10.6157 28.5783C10.6157 28.712 10.5495 28.7457 10.3788 28.699C10.2485 28.6633 10.0512 28.6849 9.94036 28.747C9.80491 28.8229 9.73887 28.9888 9.73887 29.2534C9.73887 29.518 9.80491 29.6839 9.94036 29.7598C10.0512 29.8219 10.2485 29.8435 10.3788 29.8079C10.5495 29.7611 10.6157 29.7949 10.6157 29.9285C10.6157 30.0646 10.5117 30.114 10.2249 30.114C10.0099 30.114 9.73867 30.0605 9.62207 29.9952C9.50546 29.9299 9.40856 29.7879 9.40673 29.6797C9.40389 29.5121 9.38493 29.517 9.27909 29.7124C9.21073 29.8386 9.1022 29.9781 9.03793 30.0224C8.97366 30.0667 8.59268 30.1018 8.19132 30.1005C7.46586 30.0981 7.46116 30.096 7.39457 29.7475C7.35773 29.5546 7.32759 29.2226 7.32759 29.0096C7.32759 28.7418 7.27685 28.6223 7.16319 28.6223C7.03426 28.6223 6.99878 28.78 6.99878 29.3532V30.084L6.45649 30.0968ZM10.8897 30.114C10.7535 30.114 10.7253 29.8973 10.7253 28.8518C10.7253 27.8063 10.7535 27.5896 10.8897 27.5896C11.007 27.5896 11.0541 27.7145 11.0541 28.0255C11.0541 28.4532 11.0612 28.4606 11.4242 28.4163C11.7159 28.3806 11.832 28.4274 11.9722 28.6369C12.0818 28.8007 12.1502 29.1354 12.1502 29.5084C12.1502 30.0375 12.1225 30.114 11.9309 30.114C11.7365 30.114 11.7117 30.0375 11.7117 29.4378C11.7117 28.9482 11.6672 28.7437 11.5503 28.6968C11.457 28.6593 11.3183 28.7375 11.2215 28.8821C11.1295 29.0198 11.0541 29.3532 11.0541 29.6232C11.0541 29.983 11.0102 30.114 10.8897 30.114ZM12.5338 30.114C12.3976 30.114 12.3694 29.8973 12.3694 28.8518C12.3694 27.8063 12.3976 27.5896 12.5338 27.5896C12.6699 27.5896 12.6982 27.8063 12.6982 28.8518C12.6982 29.8973 12.6699 30.114 12.5338 30.114ZM13.7369 30.0984C13.1907 30.1116 13.1192 30.0849 13.0063 29.8255C12.8989 29.5785 12.9174 29.4977 13.1376 29.2523C13.2786 29.0951 13.5128 28.9665 13.658 28.9665C13.822 28.9665 13.9038 28.9122 13.8738 28.8231C13.8472 28.7442 13.7567 28.6869 13.6728 28.6956C13.5889 28.7044 13.4289 28.7507 13.3173 28.7984C13.1566 28.8672 13.1226 28.84 13.1538 28.6677C13.1823 28.5104 13.3029 28.4406 13.5897 28.4154C13.8459 28.393 14.0491 28.4466 14.1642 28.5671C14.2876 28.6962 14.3422 28.9577 14.3422 29.4186V30.0838L13.7369 30.0984ZM13.6031 29.8556C13.6677 29.833 13.7925 29.7012 13.8804 29.5627C14.0307 29.3258 14.0238 29.3108 13.7645 29.3108C13.6129 29.3108 13.4588 29.3929 13.422 29.4933C13.3852 29.5936 13.3844 29.7254 13.4203 29.7862C13.4562 29.8469 13.5384 29.8782 13.6031 29.8556H13.6031ZM14.7123 30.114C14.5976 30.114 14.5614 29.9075 14.5614 29.2534V28.3928H15.0875C15.3769 28.3928 15.6728 28.4548 15.7452 28.5305C15.8196 28.6085 15.8767 28.9818 15.8767 29.3911C15.8767 29.9572 15.841 30.114 15.7123 30.114C15.5865 30.114 15.5479 29.9689 15.5479 29.4969C15.5479 29.1347 15.4898 28.8294 15.4072 28.7577C15.325 28.6863 15.2038 28.676 15.1156 28.7331C15.0285 28.7894 14.9433 29.102 14.9139 29.4723C14.8789 29.9148 14.8163 30.114 14.7123 30.114ZM17.088 30.0968C16.7306 30.1052 16.4878 30.0489 16.3756 29.9315C16.2739 29.825 16.2055 29.5523 16.2055 29.2534C16.2055 28.9403 16.2736 28.6822 16.3876 28.5628C16.5076 28.4372 16.6948 28.3873 16.9357 28.4168C17.2937 28.4605 17.3015 28.4522 17.3015 28.0255C17.3015 27.7145 17.3486 27.5896 17.4659 27.5896C17.602 27.5896 17.6303 27.8047 17.6303 28.8368V30.084L17.088 30.0968ZM17.0384 29.8069C17.112 29.7773 17.2035 29.6223 17.2418 29.4624C17.2852 29.2816 17.2467 29.0681 17.1399 28.8975C16.9917 28.6607 16.9386 28.6426 16.7513 28.7651C16.6083 28.8587 16.5343 29.0325 16.5343 29.2753C16.5343 29.5018 16.6056 29.6854 16.7195 29.7521C16.8213 29.8118 16.9649 29.8364 17.0384 29.8069V29.8069ZM20.4972 30.114C20.2359 30.114 19.9639 30.0276 19.8072 29.8946C19.5874 29.7083 19.5484 29.5718 19.5484 28.9887C19.5484 28.4746 19.6008 28.2415 19.7572 28.0606C19.9139 27.8794 20.0965 27.8191 20.4891 27.8191C20.9236 27.8191 21.0506 27.8703 21.2393 28.1214C21.3991 28.3341 21.4665 28.5909 21.4665 28.9872C21.4665 29.4325 21.41 29.6098 21.1974 29.8323C21.003 30.0359 20.8089 30.114 20.4972 30.114ZM20.5094 29.8845C20.559 29.8845 20.7207 29.7578 20.8686 29.6029C21.0169 29.4476 21.1377 29.1867 21.1377 29.0216C21.1377 28.8568 21.0872 28.6233 21.0255 28.5027C20.9639 28.382 20.8126 28.2268 20.6894 28.1578C20.5162 28.0608 20.4048 28.0738 20.1987 28.2152C19.976 28.3679 19.932 28.4912 19.932 28.9627C19.932 29.416 19.98 29.5625 20.1756 29.7059C20.3096 29.8041 20.4598 29.8845 20.5094 29.8845V29.8845ZM21.9387 30.114C21.6855 30.114 21.5761 30.0608 21.5761 29.9375C21.5761 29.8149 21.6645 29.7712 21.866 29.7941C22.0254 29.8123 22.1775 29.7626 22.2039 29.6838C22.2303 29.605 22.1001 29.4501 21.9147 29.3396C21.7109 29.2182 21.5772 29.0456 21.5768 28.9034C21.5764 28.7741 21.6353 28.6062 21.7076 28.5305C21.7799 28.4548 22.0019 28.3928 22.2008 28.3928C22.4557 28.3928 22.5625 28.4458 22.5625 28.5722C22.5625 28.6742 22.4799 28.7427 22.3707 28.7311C22.2652 28.7198 22.1172 28.7166 22.0419 28.7238C21.9665 28.7311 21.9049 28.7824 21.9049 28.8379C21.9049 28.8933 22.0535 29.0031 22.2351 29.0819C22.436 29.169 22.5925 29.3387 22.6349 29.5153C22.6848 29.7237 22.6477 29.8489 22.5029 29.9597C22.3921 30.0446 22.1382 30.114 21.9387 30.114ZM23.391 30.114C23.2439 30.114 23.0937 30.0636 23.0573 30.002C23.021 29.9404 22.9612 29.6177 22.9245 29.2848C22.8878 28.952 22.808 28.6456 22.7472 28.604C22.6788 28.5573 22.7061 28.4556 22.8187 28.3377C22.9189 28.2328 23.0009 28.099 23.0009 28.0404C23.0009 27.9818 23.0749 27.9338 23.1653 27.9338C23.2567 27.9338 23.3297 28.0358 23.3297 28.1633C23.3297 28.2908 23.4028 28.3928 23.4941 28.3928C23.5846 28.3928 23.6585 28.4445 23.6585 28.5076C23.6585 28.5707 23.582 28.6223 23.4884 28.6223C23.352 28.6223 23.3249 28.7418 23.3514 29.2247C23.3738 29.6315 23.429 29.8178 23.5215 29.7984C23.5969 29.7827 23.6585 29.8472 23.6585 29.9419C23.6585 30.0479 23.5557 30.114 23.391 30.114V30.114ZM24.576 30.0908C24.2596 30.1156 24.0895 30.066 23.9543 29.9096C23.8503 29.7894 23.7681 29.5083 23.7681 29.2731C23.7681 29.0048 23.8478 28.7685 23.9874 28.6223C24.1079 28.4961 24.3517 28.3928 24.5292 28.3928C24.7383 28.3928 24.9118 28.4825 25.0224 28.6478C25.1162 28.7881 25.193 28.9946 25.193 29.1068C25.193 29.2751 25.0971 29.3108 24.645 29.3108C24.3436 29.3108 24.097 29.3561 24.097 29.4115C24.097 29.4669 24.1759 29.5807 24.2723 29.6645C24.3687 29.7483 24.5951 29.8051 24.7755 29.7907C24.9996 29.7728 25.0888 29.8107 25.0574 29.9106C25.0322 29.9909 24.8155 30.072 24.576 30.0908ZM24.4088 29.0813C24.6313 29.0813 24.7546 29.0243 24.7546 28.9215C24.7546 28.8335 24.6852 28.7338 24.6005 28.6997C24.5157 28.6657 24.3601 28.7376 24.2547 28.8595C24.0691 29.0743 24.0739 29.0813 24.4088 29.0813ZM25.4622 30.114C25.3223 30.114 25.2986 29.9703 25.3252 29.2841L25.3574 28.4542L25.7684 28.4216C26.0765 28.3971 26.1794 28.4325 26.1794 28.563C26.1794 28.6587 26.1072 28.7371 26.0189 28.7371C25.9306 28.7371 25.8073 28.8369 25.7449 28.959C25.6825 29.0811 25.6314 29.3909 25.6314 29.6475C25.6314 29.9915 25.587 30.114 25.4622 30.114ZM26.5573 30.114C26.4329 30.114 26.3986 29.9281 26.3986 29.2534V28.3928H26.8371C27.1171 28.3928 27.2755 28.4452 27.2755 28.5377C27.2755 28.6174 27.1645 28.7336 27.0289 28.7959C26.8255 28.8893 26.7764 29.0149 26.7491 29.5116C26.7253 29.9449 26.6715 30.114 26.5573 30.114ZM28.089 30.0866C27.8525 30.103 27.6048 30.0772 27.5385 30.0292C27.4722 29.9812 27.357 29.8209 27.2826 29.673C27.2061 29.5211 27.1788 29.2715 27.2199 29.0993C27.2598 28.9316 27.3703 28.7041 27.4654 28.5936C27.5605 28.4832 27.775 28.3928 27.9422 28.3928C28.1094 28.3928 28.3237 28.474 28.4185 28.5731C28.5132 28.6723 28.5907 28.8789 28.5907 29.0321C28.5907 29.2859 28.5467 29.3108 28.0975 29.3108C27.7411 29.3108 27.6043 29.3567 27.6043 29.4761C27.6043 29.5671 27.6641 29.6802 27.7371 29.7274C27.8102 29.7747 28.0369 29.8016 28.2409 29.7872C28.5021 29.7688 28.598 29.8048 28.5653 29.9089C28.5398 29.9901 28.3254 30.0701 28.089 30.0866V30.0866ZM27.9331 29.0813C28.1139 29.0813 28.2619 29.036 28.2619 28.9806C28.2619 28.9252 28.1931 28.8202 28.1091 28.7471C27.9911 28.6446 27.9162 28.6564 27.7803 28.7987C27.6835 28.9 27.6043 29.0051 27.6043 29.0321C27.6043 29.0592 27.7522 29.0813 27.9331 29.0813V29.0813ZM29.0839 30.114C28.9524 30.114 28.9195 29.9419 28.9195 29.2534C28.9195 28.5649 28.9524 28.3928 29.0839 28.3928C29.2155 28.3928 29.2483 28.5649 29.2483 29.2534C29.2483 29.9419 29.2155 30.114 29.0839 30.114ZM30.2426 30.114C29.9975 30.114 29.7379 30.0364 29.6399 29.9339C29.5453 29.8348 29.4391 29.6338 29.404 29.4872C29.3688 29.3407 29.4163 29.0665 29.5094 28.8781C29.6025 28.6896 29.7585 28.5033 29.8561 28.4641C29.9536 28.4249 30.1774 28.3928 30.3533 28.3928C30.5748 28.3928 30.6732 28.4499 30.6732 28.5783C30.6732 28.7053 30.6062 28.7455 30.4611 28.7058C30.3444 28.6738 30.1471 28.7224 30.0226 28.8136C29.8982 28.9049 29.7964 29.0977 29.7964 29.2421C29.7964 29.3865 29.8845 29.5882 29.9922 29.6903C30.1107 29.8026 30.2838 29.8496 30.4306 29.8094C30.6071 29.7611 30.6732 29.7935 30.6732 29.9285C30.6732 30.0679 30.5661 30.114 30.2426 30.114ZM31.0568 30.114C30.9206 30.114 30.8924 29.8973 30.8924 28.8518C30.8924 27.8063 30.9206 27.5896 31.0568 27.5896C31.1716 27.5896 31.2212 27.7107 31.2212 27.9912C31.2212 28.3729 31.24 28.3928 31.601 28.3928C31.8642 28.3928 32.0155 28.4609 32.0942 28.6148C32.1566 28.7368 32.2076 29.1279 32.2076 29.4838C32.2076 30.038 32.1801 30.1254 32.0158 30.0927C31.8689 30.0635 31.8169 29.9206 31.7934 29.4819C31.7765 29.1669 31.7403 28.8424 31.7128 28.7608C31.6751 28.6487 31.6088 28.6427 31.442 28.7361C31.262 28.837 31.2212 28.9758 31.2212 29.4869C31.2212 29.9678 31.1829 30.114 31.0568 30.114ZM34.5165 30.114C34.2182 30.114 34.0709 30.0634 34.0709 29.961C34.0709 29.8769 34.102 29.7754 34.1401 29.7355C34.1782 29.6957 34.3015 29.7147 34.4141 29.7778C34.5527 29.8555 34.6897 29.8529 34.8381 29.7698C34.9587 29.7022 35.0573 29.5835 35.0573 29.5059C35.0573 29.4284 34.8596 29.237 34.6179 29.0806C34.3762 28.9242 34.1491 28.6994 34.1131 28.5809C34.0772 28.4624 34.1107 28.2425 34.1875 28.0923C34.3016 27.8691 34.414 27.8191 34.8018 27.8191C35.1659 27.8191 35.2765 27.8623 35.2765 28.0046C35.2765 28.1364 35.2101 28.1719 35.0468 28.1272C34.9204 28.0926 34.7478 28.0921 34.6631 28.126C34.5785 28.16 34.5093 28.2591 34.5093 28.3462C34.5093 28.4334 34.7066 28.635 34.9477 28.7944C35.3211 29.0411 35.3861 29.1429 35.3861 29.4803C35.3861 29.7545 35.3209 29.9129 35.1741 29.9952C35.0575 30.0605 34.7616 30.1139 34.5165 30.1139V30.114ZM36.5031 30.114C36.2773 30.114 35.9829 30.0336 35.8489 29.9354C35.6672 29.8021 35.6053 29.6418 35.6053 29.3043C35.6053 29.0048 35.6795 28.7742 35.8246 28.6223C35.9603 28.4802 36.1899 28.3928 36.4274 28.3928C36.7076 28.3928 36.811 28.4428 36.811 28.5783C36.811 28.7095 36.7445 28.7456 36.5836 28.7016C36.4424 28.6629 36.2763 28.7231 36.1452 28.8603C36.0291 28.9819 35.9342 29.1816 35.9342 29.3043C35.9342 29.4269 36.036 29.6019 36.1605 29.6932C36.2849 29.7845 36.4754 29.8349 36.5838 29.8052C36.6988 29.7737 36.8084 29.8268 36.8472 29.9326C36.9005 30.0781 36.8324 30.114 36.5031 30.114V30.114ZM37.1946 30.114C37.0584 30.114 37.0302 29.8973 37.0302 28.8518C37.0302 27.8063 37.0584 27.5896 37.1946 27.5896C37.3121 27.5896 37.359 27.7149 37.359 28.0287C37.359 28.4516 37.3712 28.466 37.6888 28.4171C37.8702 28.3893 38.0922 28.4304 38.182 28.5084C38.2956 28.6071 38.3454 28.8737 38.3454 29.3822C38.3454 29.9562 38.31 30.114 38.181 30.114C38.0556 30.114 38.0166 29.9699 38.0166 29.5058C38.0166 29.1714 37.9581 28.8364 37.8866 28.7616C37.7863 28.6566 37.7111 28.6685 37.5578 28.8138C37.4179 28.9463 37.359 29.1669 37.359 29.5581C37.359 29.9757 37.3181 30.114 37.1946 30.114ZM39.1212 30.114C38.9645 30.114 38.8574 29.9397 38.6843 29.4032C38.5582 29.0123 38.455 28.6251 38.455 28.5427C38.455 28.4602 38.5292 28.3928 38.6199 28.3928C38.7223 28.3928 38.834 28.5858 38.9149 28.9024C38.9865 29.1826 39.0836 29.387 39.1307 29.3565C39.1778 29.326 39.2689 29.0967 39.3331 28.847C39.4163 28.5235 39.5089 28.3928 39.6548 28.3928C39.8093 28.3928 39.8948 28.5365 40.0029 28.9779L40.1461 29.5629L40.3238 29.0065C40.4303 28.6731 40.5763 28.435 40.6882 28.4122C40.8403 28.3813 40.8613 28.4313 40.8013 28.6816C40.7608 28.8506 40.6455 29.2291 40.5452 29.5227C40.414 29.9065 40.3035 30.0566 40.1522 30.0566C40.0034 30.0566 39.9085 29.9332 39.8286 29.6357C39.7664 29.4042 39.6848 29.1828 39.6474 29.1437C39.6099 29.1045 39.5229 29.3068 39.454 29.5932C39.3606 29.9816 39.2759 30.114 39.1212 30.114ZM41.6742 30.0908C41.3578 30.1156 41.1876 30.066 41.0525 29.9096C40.9501 29.7912 40.8663 29.5162 40.8663 29.2986C40.8663 29.0809 40.9431 28.7881 41.0369 28.6478C41.1561 28.4697 41.3194 28.3928 41.5788 28.3928C41.8381 28.3928 42.0014 28.4697 42.1206 28.6478C42.2144 28.7881 42.2912 28.9946 42.2912 29.1068C42.2912 29.2751 42.1952 29.3108 41.7432 29.3108C41.4417 29.3108 41.1951 29.3561 41.1951 29.4115C41.1951 29.4669 41.274 29.5807 41.3705 29.6645C41.4669 29.7483 41.6933 29.8051 41.8736 29.7907C42.0978 29.7728 42.187 29.8107 42.1556 29.9106C42.1304 29.9909 41.9137 30.072 41.6742 30.0908ZM41.507 29.0813C41.6971 29.0813 41.8528 29.036 41.8528 28.9806C41.8528 28.9252 41.7863 28.8221 41.705 28.7515C41.5922 28.6536 41.5103 28.6774 41.3592 28.8522C41.1653 29.0766 41.1683 29.0813 41.507 29.0813ZM42.6748 30.114C42.5433 30.114 42.5104 29.9419 42.5104 29.2534C42.5104 28.5649 42.5433 28.3928 42.6748 28.3928C42.8063 28.3928 42.8392 28.5649 42.8392 29.2534C42.8392 29.9419 42.8063 30.114 42.6748 30.114ZM43.6612 30.114C43.2269 30.114 43.0584 30.0705 43.0584 29.9584C43.0584 29.8728 43.231 29.5661 43.442 29.2768C43.653 28.9875 43.8256 28.7219 43.8256 28.6866C43.8256 28.6512 43.653 28.6223 43.442 28.6223C43.231 28.6223 43.0584 28.5707 43.0584 28.5076C43.0584 28.4445 43.3297 28.3928 43.6612 28.3928C44.14 28.3928 44.264 28.4305 44.264 28.5759C44.264 28.6766 44.1547 28.9219 44.021 29.121C43.8874 29.32 43.7054 29.5604 43.6167 29.655C43.4738 29.8074 43.5018 29.8312 43.8597 29.8627C44.0821 29.8823 44.264 29.9469 44.264 30.0062C44.264 30.0655 43.9928 30.114 43.6612 30.114ZM29.0565 28.1347C28.9762 28.1627 28.9195 28.0836 28.9195 27.9434C28.9195 27.8025 28.9903 27.7044 29.092 27.7044C29.194 27.7044 29.2499 27.7824 29.229 27.8956C29.2095 28.0009 29.1319 28.1084 29.0565 28.1347ZM42.6748 28.1633C42.5835 28.1633 42.5104 28.0613 42.5104 27.9338C42.5104 27.8063 42.5835 27.7044 42.6748 27.7044C42.7661 27.7044 42.8392 27.8063 42.8392 27.9338C42.8392 28.0613 42.7661 28.1633 42.6748 28.1633ZM20.206 27.7044C20.1156 27.7044 20.0416 27.6269 20.0416 27.5322C20.0416 27.4376 20.1156 27.3601 20.206 27.3601C20.2965 27.3601 20.3704 27.4376 20.3704 27.5322C20.3704 27.6269 20.2965 27.7044 20.206 27.7044ZM20.6901 27.7044C20.5562 27.7044 20.4806 27.6451 20.5074 27.5609C20.5325 27.482 20.6352 27.4008 20.7357 27.3804C20.8439 27.3584 20.9185 27.417 20.9185 27.5238C20.9185 27.6303 20.8247 27.7044 20.6901 27.7044ZM16.9727 25.4701C16.0986 25.4937 15.1615 25.4689 14.8902 25.415C14.619 25.3611 14.1504 25.2293 13.849 25.1221C13.5476 25.0149 13.0051 24.7655 12.6434 24.5677C12.2541 24.355 11.6487 23.854 11.1599 23.3401C10.5783 22.7286 10.2009 22.2022 9.88343 21.5597C9.63555 21.058 9.35443 20.4029 9.25872 20.1038C9.163 19.8047 9.00998 19.1851 8.91866 18.7269C8.8181 18.2222 8.75259 17.2855 8.75253 16.3515C8.75248 15.5033 8.80877 14.4965 8.87762 14.114C8.94646 13.7315 9.10066 13.1088 9.22027 12.7302C9.33989 12.3515 9.48689 11.9771 9.54694 11.8983C9.63306 11.7851 9.37554 11.7548 8.32745 11.7548H6.99878V18.4674V25.18H4.5327H2.06662V18.4674V11.7548H1.08018H0.09375V9.68942V7.62401H1.08018H2.06662L2.06675 6.50525C2.06682 5.88993 2.13378 5.02504 2.21556 4.58327C2.29733 4.14151 2.44763 3.57352 2.54954 3.32108C2.65146 3.06864 3.00508 2.59412 3.33536 2.26659C3.66565 1.93906 4.19347 1.5393 4.5083 1.37822C4.82313 1.21715 5.37623 1.00491 5.7374 0.906588C6.19859 0.78103 6.90613 0.728317 8.11417 0.729512C9.06022 0.730453 9.96188 0.764746 10.1179 0.805731L10.4015 0.880248L10.3716 2.89634L10.3417 4.91243L9.13606 4.88849C8.31871 4.87226 7.84216 4.91267 7.65641 5.01396C7.5057 5.09613 7.29845 5.34266 7.19585 5.56179C7.07455 5.82086 7.00747 6.25117 7.00405 6.79211L6.99878 7.62401H8.47843H9.95808V9.30431V10.9846L10.3577 10.4231C10.5775 10.1142 11.0507 9.56787 11.4092 9.20894C11.7801 8.8377 12.4229 8.36252 12.9003 8.10677C13.3618 7.85951 13.986 7.58519 14.2874 7.49718C14.6515 7.39088 15.4242 7.33715 16.5891 7.33715C17.6985 7.33715 18.5642 7.39445 18.9456 7.49311C19.2771 7.5789 19.8937 7.82178 20.3156 8.03285C20.7376 8.24392 21.3582 8.64537 21.6948 8.92495C22.0314 9.20452 22.5612 9.7878 22.8722 10.2211C23.1831 10.6544 23.5583 11.2672 23.7059 11.5827C23.8535 11.8983 24.0323 12.3113 24.1033 12.5007C24.1743 12.69 24.2787 13.0256 24.3352 13.2465C24.3917 13.4674 24.5082 14.0354 24.5941 14.5087C24.68 14.982 24.7512 15.834 24.7523 16.402C24.7534 16.97 24.6844 17.8478 24.599 18.3527C24.5136 18.8575 24.361 19.5288 24.2599 19.8443C24.1588 20.1599 23.9289 20.7244 23.7492 21.0988C23.5694 21.4732 23.2832 21.9913 23.113 22.2501C22.9429 22.509 22.4651 23.0546 22.0512 23.4627C21.6372 23.8708 21.0034 24.3677 20.6427 24.5671C20.282 24.7664 19.6662 25.0415 19.2744 25.1784C18.7098 25.3756 18.2323 25.4361 16.9727 25.4701V25.4701ZM16.668 21.8456C17.2164 21.8506 17.5067 21.7922 17.805 21.6168C18.0253 21.4873 18.2627 21.3195 18.3326 21.2439C18.4024 21.1684 18.5597 20.9516 18.6822 20.7623C18.8046 20.573 18.9605 20.2115 19.0288 19.9591C19.097 19.7066 19.2048 19.2578 19.2684 18.9616C19.332 18.6655 19.384 17.5449 19.384 16.4716C19.384 15.3982 19.3331 14.2464 19.2708 13.9119C19.2086 13.5775 19.1005 13.0973 19.0306 12.8449C18.9607 12.5925 18.766 12.1716 18.598 11.9096C18.4081 11.6137 18.1013 11.3365 17.788 11.1777C17.3694 10.9656 17.1567 10.9316 16.5366 10.9781C15.9901 11.019 15.6908 11.1066 15.4221 11.3042C15.22 11.4527 14.9946 11.6536 14.9213 11.7506C14.8479 11.8476 14.7059 12.1037 14.6057 12.3197C14.5055 12.5358 14.3498 13.0263 14.2596 13.4098C14.1422 13.9094 14.0961 14.7415 14.0971 16.3446C14.0981 17.9273 14.1461 18.7862 14.261 19.2794C14.3504 19.6629 14.5138 20.1793 14.6241 20.4269C14.7345 20.6745 14.9763 21.0319 15.1615 21.2213C15.3468 21.4106 15.5958 21.627 15.7149 21.7022C15.834 21.7774 16.2629 21.8419 16.668 21.8456ZM30.0704 25.4769C29.2867 25.4962 28.4729 25.4714 28.2619 25.4218C28.0509 25.3722 27.6837 25.2442 27.4458 25.1375C27.2079 25.0307 26.848 24.8114 26.6459 24.65C26.4439 24.4887 26.1019 24.0782 25.886 23.7378C25.6702 23.3974 25.3924 22.7694 25.2689 22.3422C25.0553 21.604 25.0421 21.2205 25.0008 14.5948L24.9574 7.62401H27.4317H29.906V13.6438C29.906 19.3864 29.9161 19.6919 30.1256 20.2781C30.2987 20.7626 30.4353 20.9456 30.7707 21.143C31.0068 21.2819 31.3848 21.3926 31.6197 21.3917C31.8527 21.3907 32.2404 21.3181 32.4814 21.2303C32.7224 21.1425 33.1049 20.9077 33.3315 20.7086C33.5581 20.5095 33.8295 20.1819 33.9346 19.9807C34.1073 19.6501 34.131 19.0392 34.1805 13.6481L34.2353 7.68138L36.7836 7.65058L39.3319 7.61978V16.3999V25.18H36.9791H34.6263L34.5952 23.9465L34.5641 22.713L34.376 23.1237C34.2726 23.3497 33.9489 23.7886 33.6568 24.0991C33.3646 24.4096 32.9067 24.7733 32.6392 24.9073C32.3717 25.0413 32.0049 25.2164 31.824 25.2964C31.6332 25.3808 30.8972 25.4565 30.0704 25.4769V25.4769ZM61.5286 25.4775C60.8644 25.4969 60.1421 25.4729 59.9234 25.4241C59.7047 25.3754 59.2409 25.1895 58.8927 25.0112C58.5445 24.8328 58.003 24.4235 57.6895 24.1016C57.3759 23.7796 56.9751 23.2839 56.7987 22.9999C56.6224 22.7159 56.4192 22.3544 56.3472 22.1967C56.2752 22.0389 56.0947 21.5225 55.946 21.0491C55.7973 20.5757 55.5988 19.65 55.5049 18.9921C55.4109 18.3342 55.334 17.2196 55.334 16.5152C55.334 15.8108 55.4038 14.7485 55.4892 14.1545C55.5745 13.5604 55.678 12.9195 55.7193 12.7302C55.7605 12.5408 55.8937 12.0761 56.0153 11.6975C56.137 11.3188 56.391 10.7006 56.5799 10.3236C56.7687 9.94661 57.2016 9.32699 57.5418 8.94665C57.8983 8.54818 58.4092 8.12625 58.7475 7.95105C59.0704 7.78381 59.4825 7.58969 59.6634 7.51967C59.8442 7.44964 60.3621 7.35337 60.8142 7.30574C61.2663 7.2581 61.9731 7.25995 62.3848 7.30985C62.8089 7.36125 63.4265 7.54132 63.8097 7.72529C64.1816 7.90388 64.7202 8.26836 65.0065 8.53523L65.5272 9.02045V5.28149V1.54254H67.9932H70.4593V13.3613V25.18H68.1028H65.7464L65.7451 24.0612L65.7439 22.9424L65.4496 23.3441C65.2877 23.5649 64.9311 23.9657 64.6572 24.2347C64.3832 24.5036 63.8389 24.8853 63.4477 25.0829C62.8048 25.4075 62.6198 25.4455 61.5286 25.4774L61.5286 25.4775ZM63.2482 21.6943C63.6655 21.6618 63.9938 21.5577 64.2346 21.3815C64.4331 21.2363 64.6861 21.0117 64.7969 20.8825C64.9076 20.7533 65.1049 20.4152 65.2353 20.1313C65.4568 19.6488 65.4745 19.4165 65.5049 16.5888C65.5353 13.7647 65.522 13.512 65.3045 12.8023C65.1763 12.384 64.9397 11.8951 64.7787 11.7159C64.6177 11.5368 64.3527 11.3173 64.19 11.2283C64.0272 11.1393 63.6079 11.0666 63.2583 11.0668C62.803 11.0672 62.5138 11.1367 62.239 11.312C62.0281 11.4466 61.7626 11.6659 61.6491 11.7992C61.5356 11.9326 61.333 12.2999 61.1989 12.6155C61.0648 12.931 60.8868 13.4732 60.8034 13.8203C60.7017 14.2436 60.6514 15.1502 60.6508 16.5742C60.6501 17.9942 60.6986 18.8869 60.7972 19.2707C60.8782 19.5862 61.0418 20.0547 61.1607 20.3118C61.2795 20.5688 61.4897 20.9167 61.6277 21.0849C61.7657 21.253 62.046 21.4699 62.2506 21.5668C62.4985 21.6842 62.8315 21.7268 63.2482 21.6943ZM79.2824 25.4668C78.3782 25.488 77.4904 25.4834 77.3096 25.4566C77.1287 25.4298 76.7835 25.3539 76.5423 25.2879C76.3012 25.2219 75.8326 25.0581 75.5011 24.9238C75.1695 24.7896 74.627 24.4891 74.2955 24.2562C73.9639 24.0233 73.4891 23.6258 73.2404 23.3729C72.9917 23.12 72.5894 22.6356 72.3464 22.2966C72.1033 21.9576 71.7553 21.3704 71.5729 20.9918C71.3906 20.6131 71.1301 19.8902 70.9941 19.3854C70.781 18.594 70.7472 18.1983 70.7492 16.5167C70.7512 14.8605 70.7882 14.4275 70.9944 13.6481C71.128 13.1432 71.3798 12.4085 71.5539 12.0153C71.7281 11.6222 72.0292 11.0592 72.223 10.7642C72.4169 10.4692 72.8519 9.93885 73.1897 9.58569C73.5275 9.23253 74.0748 8.75736 74.4059 8.52976C74.737 8.30216 75.3303 7.98218 75.7245 7.81869C76.1186 7.65521 76.7816 7.46449 77.1978 7.39487C77.6141 7.32526 78.352 7.26987 78.8377 7.2718C79.3234 7.27372 79.9921 7.32362 80.3237 7.3827C80.6552 7.44177 81.1652 7.57551 81.457 7.67989C81.7488 7.78426 82.2174 8.00224 82.4983 8.16427C82.7791 8.32631 83.2309 8.62864 83.5022 8.83613C83.7734 9.04361 84.1987 9.43666 84.4472 9.70957C84.6957 9.98248 85.0763 10.4865 85.293 10.8297C85.5097 11.1729 85.8069 11.8183 85.9535 12.264C86.1001 12.7097 86.2706 13.2809 86.3324 13.5334C86.3943 13.7858 86.4979 14.3339 86.5628 14.7514C86.6276 15.1689 86.6807 15.9305 86.6807 16.4439V17.3773H81.3649H76.0491L76.0508 18.1518C76.0517 18.5778 76.1133 19.1377 76.1878 19.396C76.2622 19.6544 76.464 20.0986 76.6362 20.3832C76.8343 20.7107 77.175 21.0439 77.5636 21.2905C78.135 21.653 78.2432 21.6802 79.1138 21.6802C79.7829 21.6802 80.1648 21.6225 80.4537 21.4775C80.6759 21.366 81.0272 21.0675 81.2344 20.8141C81.4416 20.5607 81.6959 20.071 81.7996 19.7259C81.9519 19.219 82.0335 19.0989 82.2245 19.1009C82.3545 19.1022 83.2008 19.1524 84.105 19.2125C85.0092 19.2727 85.9369 19.3541 86.1664 19.3935C86.5677 19.4624 86.5809 19.479 86.5087 19.8231C86.4674 20.02 86.3935 20.2602 86.3445 20.3569C86.2955 20.4537 86.0993 20.8684 85.9085 21.2786C85.7176 21.6889 85.3923 22.2662 85.1856 22.5617C84.9789 22.8571 84.5487 23.3486 84.2296 23.6539C83.9106 23.9592 83.3575 24.3711 83.0004 24.5692C82.6434 24.7674 82.0307 25.0417 81.6389 25.1789C81.0639 25.3802 80.6094 25.4357 79.2824 25.4668L79.2824 25.4668ZM78.8593 14.1645H81.6694L81.6019 13.5621C81.5648 13.2307 81.397 12.6777 81.2291 12.333C81.0318 11.9281 80.7561 11.5829 80.45 11.3577C80.0105 11.0342 79.9074 11.009 79.0265 11.009C78.3622 11.009 77.9615 11.0669 77.6932 11.2018C77.4822 11.3079 77.1796 11.5402 77.0207 11.7182C76.8618 11.8961 76.6445 12.2224 76.5378 12.4433C76.4311 12.6642 76.2781 13.1031 76.1977 13.4186C76.1174 13.7342 76.0511 14.0311 76.0504 14.0784C76.0496 14.1257 77.3137 14.1645 78.8593 14.1645V14.1645ZM102.135 25.4669C101.08 25.4899 100.093 25.4858 99.9427 25.4579C99.792 25.4299 99.3728 25.3469 99.0111 25.2734C98.6494 25.1998 98.0118 24.993 97.5943 24.8137C97.1767 24.6345 96.6588 24.3506 96.4434 24.183C96.228 24.0154 95.823 23.6306 95.5434 23.3279C95.2637 23.0251 94.8873 22.4531 94.7068 22.0567C94.5264 21.6603 94.3236 21.1916 94.2562 21.0151C94.1888 20.8386 94.1337 20.5956 94.1337 20.4752C94.1337 20.3182 94.2344 20.2378 94.4899 20.1909C94.6859 20.1548 95.3394 20.046 95.9422 19.949C96.545 19.852 97.3341 19.7472 97.6958 19.716L98.3535 19.6592L98.6124 20.2481C98.7743 20.6162 99.0327 20.9593 99.3016 21.1633C99.5383 21.3427 99.9943 21.5759 100.315 21.6815C100.752 21.8255 101.197 21.8637 102.092 21.8343C103.099 21.8011 103.368 21.7508 103.816 21.5113C104.108 21.3553 104.441 21.0891 104.556 20.9199C104.671 20.7506 104.765 20.4577 104.765 20.2691C104.765 20.0515 104.653 19.7998 104.458 19.5811C104.288 19.3914 103.955 19.1774 103.718 19.1055C103.48 19.0335 102.891 18.9271 102.409 18.8689C101.927 18.8107 101.261 18.7141 100.929 18.6543C100.598 18.5945 99.8824 18.4334 99.3399 18.2963C98.7974 18.1592 97.9836 17.8865 97.5314 17.6903C96.9774 17.4498 96.5181 17.1446 96.1226 16.7538C95.7999 16.435 95.4436 15.9849 95.331 15.7537C95.2183 15.5224 95.0515 15.109 94.9603 14.8349C94.8691 14.5608 94.7938 13.9622 94.7929 13.5047C94.7917 12.8398 94.7581 12.6728 94.6257 12.6728C94.5347 12.6728 94.2468 12.7778 93.9861 12.9061C93.7254 13.0344 93.3595 13.3054 93.1729 13.5085C92.9863 13.7115 92.7044 14.1486 92.5464 14.4799C92.3884 14.8111 92.1885 15.4307 92.1023 15.8568C91.9825 16.4483 91.945 17.6422 91.9435 20.9057L91.9416 25.18H89.4756H87.0095V16.402V7.62401H89.3112H91.6128L91.6185 8.97226L91.6241 10.3205L91.8009 9.86154C91.8982 9.6091 92.1525 9.12282 92.3661 8.78092C92.5798 8.43902 92.9695 8.00013 93.2322 7.80559C93.4948 7.61106 93.8668 7.39128 94.0587 7.31719C94.2507 7.24311 94.7881 7.17856 95.253 7.17376L96.0984 7.16503L96.1299 8.19523L96.1614 9.22542L96.6546 8.81022C96.9259 8.58186 97.4931 8.22799 97.915 8.02386C98.337 7.81972 98.9289 7.59415 99.2303 7.52258C99.5317 7.45101 100.234 7.35215 100.79 7.30289C101.347 7.25362 102.284 7.25547 102.873 7.30699C103.461 7.35851 104.24 7.49919 104.602 7.61961C104.964 7.74003 105.499 7.97824 105.791 8.14897C106.082 8.31969 106.531 8.67159 106.787 8.93097C107.043 9.19034 107.399 9.63491 107.578 9.91891C107.757 10.2029 108.035 10.7244 108.197 11.0778C108.359 11.4312 108.492 11.7757 108.492 11.8434C108.492 11.9111 108.332 12.0165 108.136 12.0777C107.94 12.1388 107.36 12.303 106.848 12.4425C106.335 12.582 105.773 12.7425 105.598 12.7992C105.424 12.8559 105.172 12.9023 105.04 12.9023C104.866 12.9023 104.73 12.7596 104.544 12.381C104.403 12.0943 104.161 11.7277 104.007 11.5662C103.853 11.4048 103.529 11.1618 103.287 11.0261C102.909 10.8144 102.669 10.7797 101.587 10.7811C100.615 10.7823 100.249 10.8269 99.9864 10.976C99.7994 11.0824 99.5651 11.2993 99.4658 11.4581C99.3664 11.6168 99.2851 11.901 99.2851 12.0896C99.2851 12.2782 99.3399 12.5583 99.4068 12.7122C99.4737 12.866 99.634 13.0455 99.763 13.1112C99.892 13.1768 100.17 13.282 100.381 13.3449C100.592 13.4079 101.11 13.5129 101.532 13.5784C101.954 13.644 102.694 13.7551 103.176 13.8254C103.658 13.8957 104.299 14.0066 104.601 14.0718C104.902 14.137 105.262 14.2361 105.401 14.2921C105.539 14.3481 105.729 14.394 105.823 14.394C105.917 14.394 106.297 14.5454 106.668 14.7305C107.038 14.9156 107.579 15.3157 107.869 15.6197C108.159 15.9238 108.536 16.4823 108.705 16.861C108.877 17.2443 109.074 17.966 109.149 18.4893C109.252 19.2099 109.255 19.6113 109.158 20.2104C109.089 20.6402 108.98 21.1467 108.916 21.336C108.851 21.5253 108.692 21.9102 108.563 22.1912C108.433 22.4722 108.074 22.9886 107.765 23.3386C107.456 23.6887 106.889 24.1702 106.505 24.4086C106.121 24.647 105.412 24.9732 104.93 25.1336C104.16 25.3894 103.818 25.4302 102.135 25.4669H102.135ZM43.0036 25.18H40.4279V16.3998V7.61954L42.8118 7.65046L45.1957 7.68138L45.2269 8.86165C45.2516 9.79293 45.2863 10.0108 45.3914 9.89436C45.4646 9.8132 45.6674 9.52644 45.8421 9.25713C46.0168 8.98781 46.356 8.58182 46.5959 8.35493C46.8358 8.12803 47.2601 7.83418 47.5387 7.70193C47.8174 7.56968 48.4129 7.4061 48.862 7.33842C49.3469 7.26535 50.0283 7.25074 50.5393 7.30246C51.0126 7.35037 51.6316 7.47152 51.9147 7.57169C52.1979 7.67185 52.6624 7.90979 52.9471 8.10044C53.2318 8.29109 53.6137 8.62477 53.7959 8.84195C53.978 9.05913 54.229 9.4461 54.3537 9.70189C54.4783 9.95768 54.6759 10.5583 54.7927 11.0366C54.9909 11.8478 55.0052 12.3522 55.0052 18.5431V25.18H52.4843H49.9634V19.3214C49.9634 15.5151 49.9221 13.2909 49.8453 12.9719C49.7804 12.7018 49.6201 12.3534 49.4891 12.1975C49.3582 12.0417 49.1291 11.8267 48.98 11.7198C48.7928 11.5855 48.486 11.5253 47.9876 11.5253C47.3807 11.5253 47.1871 11.5779 46.7674 11.8566C46.437 12.0759 46.1897 12.3582 46.0351 12.6925C45.9068 12.97 45.7517 13.4735 45.6905 13.8112C45.6252 14.1718 45.5793 16.645 45.5793 19.8026V25.18H43.0036ZM86.6057 5.44343C86.276 5.44317 85.9463 5.35906 85.7276 5.21942C85.535 5.09645 85.2915 4.85873 85.1866 4.69115C85.0534 4.47825 84.9979 4.16605 85.0025 3.65481C85.0068 3.1727 85.0719 2.82282 85.1932 2.62898C85.2945 2.46718 85.535 2.23418 85.7276 2.11121C85.9202 1.98824 86.2554 1.88743 86.4725 1.8872C86.6896 1.88696 87.0247 1.94427 87.2173 2.01456C87.4099 2.08484 87.549 2.20102 87.5263 2.27273C87.5028 2.34751 87.1797 2.41744 86.7689 2.4367C86.1884 2.46391 86.0076 2.52028 85.8159 2.73387C85.6858 2.87885 85.5371 3.15171 85.4855 3.34022C85.4239 3.56519 85.4401 3.83063 85.5327 4.11265C85.6103 4.34898 85.7647 4.613 85.8758 4.69938C85.9869 4.78576 86.261 4.88956 86.4848 4.93003C86.7087 4.97051 86.943 4.97055 87.0055 4.93011C87.068 4.88967 87.1191 4.62728 87.1191 4.34701C87.1191 3.85731 87.1063 3.83743 86.7903 3.83743C86.5711 3.83743 86.4615 3.78006 86.4615 3.66531C86.4615 3.53527 86.5954 3.4932 87.0095 3.4932H87.5575V4.34975C87.5575 5.07916 87.526 5.22393 87.3455 5.32508C87.2289 5.39041 86.896 5.44367 86.6057 5.44343ZM75.9357 5.32911C75.7315 5.32911 75.7203 5.24274 75.7203 3.66531V2.00151H75.9809C76.1242 2.00151 76.2891 2.06606 76.3474 2.14495C76.4056 2.22383 76.6382 2.77891 76.8641 3.37845C77.0901 3.97799 77.2899 4.48466 77.3082 4.50437C77.3265 4.52408 77.4206 4.37415 77.5173 4.17119C77.614 3.96823 77.6932 3.7619 77.6932 3.71268C77.6932 3.66346 77.8499 3.25831 78.0414 2.81235C78.3536 2.08533 78.4216 2.00151 78.699 2.00151H79.0084V3.66531C79.0084 5.25262 78.9983 5.32911 78.7892 5.32911C78.5833 5.32911 78.5697 5.25081 78.5648 4.03824L78.5596 2.74736L78.0602 4.03824C77.6417 5.11996 77.5226 5.32911 77.3254 5.32911C77.1284 5.32911 77.0185 5.13721 76.6517 4.15298L76.2135 2.97685L76.1823 4.15298C76.1536 5.23454 76.1337 5.32911 75.9357 5.32911V5.32911ZM80.6896 5.32911C80.5386 5.32911 80.4314 5.28807 80.4515 5.2379C80.4716 5.18774 80.7541 4.46039 81.0792 3.62158C81.4043 2.78277 81.7439 2.06688 81.8339 2.03073C81.9239 1.99457 82.0688 2.01206 82.1559 2.06958C82.243 2.1271 82.5805 2.87112 82.906 3.72295C83.2315 4.57479 83.4988 5.28808 83.5 5.30805C83.5012 5.32802 83.367 5.32802 83.2017 5.30805C83.0035 5.2841 82.8876 5.19362 82.8611 5.04225C82.839 4.91603 82.7709 4.74822 82.7097 4.66933C82.6421 4.58209 82.328 4.5259 81.908 4.5259H81.2175L81.0909 4.92751C80.991 5.24438 80.9063 5.32911 80.6896 5.32911ZM81.9677 4.06692H82.5125L82.2857 3.46451C82.161 3.13319 82.0384 2.84059 82.0133 2.81429C81.9882 2.788 81.9472 2.788 81.9221 2.81429C81.897 2.84059 81.7744 3.13319 81.6497 3.46451L81.4229 4.06692H81.9677ZM89.3483 5.32911C89.1973 5.32911 89.0901 5.28927 89.1102 5.24057C89.1303 5.19187 89.418 4.44357 89.7496 3.57769C90.2589 2.2476 90.3886 2.00322 90.5856 2.00244C90.7138 2.00193 90.8688 2.06606 90.9299 2.14495C90.991 2.22383 91.1239 2.54655 91.2252 2.8621C91.3266 3.17765 91.4838 3.61655 91.5745 3.83743C91.6653 4.05832 91.8343 4.45987 91.9502 4.72977C92.0661 4.99968 92.1609 5.24837 92.1609 5.28243C92.1609 5.31649 92.0256 5.32802 91.8604 5.30805C91.6622 5.2841 91.5462 5.19362 91.5198 5.04225C91.4977 4.91603 91.4296 4.74822 91.3684 4.66933C91.3008 4.58209 90.9867 4.5259 90.5667 4.5259H89.8762L89.7496 4.92751C89.6497 5.24438 89.565 5.32911 89.3483 5.32911V5.32911ZM90.6219 4.06692H91.1623L90.9294 3.46451C90.8013 3.13319 90.6807 2.84059 90.6614 2.81429C90.6422 2.788 90.6059 2.788 90.5808 2.81429C90.5557 2.84059 90.4331 3.13319 90.3084 3.46451L90.0816 4.06692H90.6219ZM94.4625 5.32911C93.5726 5.32911 93.3665 5.29748 93.3665 5.16089C93.3665 5.06837 93.4496 4.81019 93.5512 4.58717C93.6528 4.36414 93.7761 4.18167 93.8252 4.18167C93.8743 4.18167 93.9145 4.1272 93.9145 4.06063C93.9145 3.99405 94.1118 3.63544 94.3529 3.26371C94.5941 2.89198 94.7913 2.55918 94.7913 2.52416C94.7913 2.48914 94.4708 2.46049 94.0789 2.46049C93.4396 2.46049 93.3665 2.43696 93.3665 2.231C93.3665 2.01762 93.4396 2.00151 94.4077 2.00151C95.2967 2.00151 95.449 2.02884 95.449 2.18836C95.449 2.29112 95.1284 2.90986 94.7365 3.56332C94.3447 4.21679 94.0241 4.77815 94.0241 4.81079C94.0241 4.84343 94.3694 4.87014 94.7913 4.87014C95.4855 4.87014 95.5586 4.89199 95.5586 5.09962C95.5586 5.31382 95.4855 5.32911 94.4625 5.32911V5.32911ZM97.2574 5.32911H96.9834V3.66531V2.00151H97.2574H97.5314V3.66531V5.32911H97.2574ZM99.4495 5.32911H99.1755V3.65805V1.98697L99.5113 2.02293C99.7881 2.05256 99.899 2.15989 100.142 2.63261C100.303 2.94816 100.461 3.23215 100.491 3.26371C100.521 3.29526 100.664 3.55344 100.808 3.83743C100.952 4.12143 101.112 4.40284 101.164 4.46279C101.217 4.52402 101.258 4.00856 101.258 3.28666C101.258 2.07801 101.271 2.00151 101.477 2.00151C101.686 2.00151 101.696 2.07801 101.696 3.66531V5.32911H101.391C101.119 5.32911 101.014 5.19779 100.405 4.09561L99.7246 2.8621L99.724 4.09561L99.7235 5.32911H99.4495ZM25.8643 5.09701C25.6458 5.09558 25.319 5.01759 25.1382 4.9237C24.9573 4.82982 24.7231 4.59445 24.6176 4.40067C24.5056 4.19491 24.4258 3.81037 24.4258 3.47636C24.4258 3.16177 24.4828 2.7916 24.5526 2.65375C24.6223 2.51591 24.8073 2.28701 24.9636 2.14509C25.202 1.92866 25.3759 1.88703 26.0424 1.88691C26.756 1.88678 26.8371 1.90949 26.8371 2.10949C26.8371 2.23198 26.7911 2.36191 26.735 2.39822C26.6789 2.43453 26.602 2.41176 26.5641 2.34762C26.5263 2.28348 26.2886 2.23107 26.036 2.23114C25.7018 2.23125 25.4881 2.311 25.2517 2.5238C24.9661 2.78095 24.9268 2.89132 24.9268 3.43674C24.9268 3.92613 24.98 4.11646 25.1788 4.33795C25.3174 4.49239 25.5926 4.65053 25.7904 4.68938C25.9882 4.72823 26.2306 4.72763 26.3291 4.68805C26.4573 4.63657 26.5082 4.47264 26.5082 4.11202C26.5082 3.62843 26.4949 3.60794 26.1794 3.60794C25.9602 3.60794 25.8506 3.55057 25.8506 3.43583C25.8506 3.30578 25.9846 3.26371 26.3986 3.26371H26.9467V4.10995V4.95619L26.6041 5.02791C26.4158 5.06735 26.0828 5.09845 25.8643 5.09701ZM32.372 5.09637C32.1912 5.0963 31.9209 5.03144 31.7714 4.95224C31.6219 4.87304 31.4376 4.68017 31.362 4.52364C31.2787 4.35126 31.2238 3.77528 31.2228 3.0629C31.2213 1.9627 31.2354 1.88677 31.4404 1.88677C31.6448 1.88677 31.6596 1.96327 31.6596 3.02151C31.6596 3.94567 31.6964 4.20385 31.858 4.41279C31.9803 4.57085 32.1776 4.66933 32.372 4.66933C32.5665 4.66933 32.7638 4.57085 32.886 4.41279C33.0476 4.20385 33.0845 3.94567 33.0845 3.02151C33.0845 1.96327 33.0992 1.88677 33.3037 1.88677C33.5084 1.88677 33.5229 1.96327 33.5229 3.04556C33.5229 3.85989 33.4718 4.31699 33.3511 4.58324C33.2567 4.79163 33.0717 4.99236 32.9401 5.02931C32.8085 5.06626 32.5529 5.09644 32.372 5.09637V5.09637ZM15.5101 4.98488H14.7806V3.43583V1.88677L15.5753 1.88691C16.2492 1.88702 16.415 1.92764 16.6668 2.15435C16.8382 2.30866 17.0205 2.64428 17.0982 2.94833C17.2077 3.37716 17.2047 3.564 17.0817 3.954C16.994 4.23243 16.7861 4.54853 16.5852 4.70893C16.3002 4.93649 16.1117 4.98488 15.5101 4.98488V4.98488ZM15.5783 4.64065C15.7759 4.64065 16.0474 4.56006 16.1817 4.46156C16.3161 4.36307 16.504 4.12444 16.5994 3.93127C16.7158 3.69573 16.7493 3.44829 16.7012 3.17993C16.6618 2.95986 16.5022 2.65632 16.3467 2.5054C16.1502 2.31472 15.935 2.231 15.6415 2.231H15.2191V3.43583V4.64065H15.5783ZM18.5072 4.98488C18.2988 4.98488 18.288 4.90838 18.288 3.43583C18.288 1.96327 18.2988 1.88677 18.5072 1.88677C18.7156 1.88677 18.7264 1.96327 18.7264 3.43583C18.7264 4.90838 18.7155 4.98488 18.5072 4.98488ZM20.6992 4.98488H19.8224V3.43583V1.88677H20.6444C21.3021 1.88677 21.4665 1.92119 21.4665 2.05889C21.4665 2.18893 21.3325 2.231 20.9185 2.231H20.3704V2.74736V3.26371H20.9185C21.3325 3.26371 21.4665 3.30578 21.4665 3.43583C21.4665 3.56587 21.3325 3.60794 20.9185 3.60794H20.3704V4.12429V4.64065H20.9733C21.436 4.64065 21.5761 4.68063 21.5761 4.81276C21.5761 4.95141 21.4056 4.98488 20.6992 4.98488ZM28.4811 4.98488C28.2727 4.98488 28.2619 4.90838 28.2619 3.43583V1.88677H28.9665C29.4609 1.88677 29.7225 1.94056 29.8433 2.06708C29.9381 2.16626 30.0156 2.42443 30.0156 2.64081C30.0156 2.86892 29.9326 3.11859 29.8181 3.23502C29.6281 3.42831 29.6297 3.45515 29.8606 3.95218C29.9926 4.23617 30.1354 4.58893 30.1779 4.73609C30.2445 4.9665 30.2211 4.99836 30.0096 4.96558C29.8745 4.94464 29.7278 4.85005 29.6836 4.75539C29.6394 4.66073 29.5089 4.37673 29.3936 4.12429C29.2577 3.82669 29.0989 3.65242 28.9421 3.62865C28.7155 3.59428 28.7003 3.6357 28.7003 4.28843C28.7003 4.90838 28.6762 4.98488 28.4811 4.98488V4.98488ZM28.8951 3.26371C29.0023 3.26371 29.1996 3.18333 29.3335 3.08508C29.4675 2.98684 29.5771 2.81645 29.5771 2.70643C29.5771 2.59641 29.518 2.44443 29.4456 2.3687C29.3733 2.29297 29.176 2.231 29.0072 2.231C28.7166 2.231 28.7003 2.25832 28.7003 2.74736C28.7003 3.16567 28.7373 3.26371 28.8951 3.26371ZM34.9477 4.98488C34.7393 4.98488 34.7285 4.90838 34.7285 3.43583V1.88677H35.0573C35.2382 1.88677 35.3861 1.92961 35.3861 1.98198C35.3861 2.03434 35.6451 2.53605 35.9616 3.09689L36.537 4.11661L36.5683 3.00169C36.5971 1.98127 36.618 1.88677 36.815 1.88677C37.0182 1.88677 37.0302 1.97279 37.0302 3.43583V4.98488H36.7696C36.6263 4.98488 36.4608 4.92034 36.4018 4.84145C36.3428 4.76256 36.1471 4.41402 35.9669 4.06692C35.7867 3.71982 35.5332 3.2551 35.4035 3.03422L35.1678 2.63261L35.1673 3.80875C35.167 4.90824 35.1526 4.98488 34.9477 4.98488V4.98488ZM38.8989 4.98488H38.2358V3.43583V1.88677H39.0499C39.8564 1.88677 39.867 1.89073 40.2007 2.31452C40.4833 2.67346 40.5375 2.84051 40.5375 3.35292C40.5375 3.68878 40.4627 4.11504 40.3713 4.30017C40.2798 4.48529 40.0603 4.71509 39.8835 4.81082C39.7 4.91013 39.2772 4.98488 38.8989 4.98488ZM38.9431 4.64065C39.091 4.64065 39.3352 4.58186 39.4858 4.51C39.6365 4.43815 39.8415 4.19898 39.9414 3.97853C40.0597 3.71747 40.1011 3.43293 40.06 3.16253C40.0229 2.91863 39.8798 2.64085 39.7131 2.48918C39.5369 2.32893 39.2861 2.231 39.0518 2.231H38.6742V3.43583C38.6742 4.63831 38.6748 4.64065 38.9431 4.64065V4.64065ZM42.5652 4.98488H41.7432V3.43583V1.88677H42.5652C43.2228 1.88677 43.3872 1.92119 43.3872 2.05889C43.3872 2.19102 43.2472 2.231 42.7844 2.231H42.1816V2.74736V3.26371H42.7296C43.1436 3.26371 43.2776 3.30578 43.2776 3.43583C43.2776 3.56587 43.1436 3.60794 42.7296 3.60794H42.1816V4.12429V4.64065H42.7844C43.2472 4.64065 43.3872 4.68063 43.3872 4.81276C43.3872 4.95046 43.2228 4.98488 42.5652 4.98488ZM44.7573 4.98488C44.6192 4.98488 44.5929 4.73627 44.5929 3.43583V1.88677H45.2991C45.9046 1.88677 46.0296 1.92313 46.1759 2.14179C46.2697 2.28205 46.3465 2.53223 46.3465 2.69773C46.3465 2.86324 46.2518 3.08841 46.136 3.19811C45.9291 3.39411 45.931 3.41053 46.2456 4.14455C46.4217 4.55539 46.5657 4.91253 46.5657 4.9382C46.5657 4.96388 46.4505 4.98488 46.3097 4.98488C46.1013 4.98488 46.0007 4.85665 45.7698 4.29641C45.5282 3.71012 45.4442 3.60794 45.2039 3.60794C44.932 3.60794 44.9217 3.6332 44.9217 4.29641C44.9217 4.83189 44.8851 4.98488 44.7573 4.98488ZM45.0809 3.26371C45.1685 3.26371 45.3616 3.20578 45.51 3.13498C45.6585 3.06417 45.8023 2.9166 45.8297 2.80704C45.857 2.69748 45.8341 2.52305 45.7787 2.41942C45.7157 2.30148 45.5366 2.231 45.2998 2.231C44.9247 2.231 44.9217 2.23515 44.9217 2.74736C44.9217 3.12241 44.9652 3.26371 45.0809 3.26371V3.26371ZM50.4018 4.98488H49.525V3.43583V1.88677H50.347C51.0047 1.88677 51.1691 1.92119 51.1691 2.05889C51.1691 2.18893 51.0351 2.231 50.6211 2.231H50.073V2.74736V3.26371H50.6211C51.0351 3.26371 51.1691 3.30578 51.1691 3.43583C51.1691 3.56587 51.0351 3.60794 50.6211 3.60794H50.073V4.12429V4.64065H50.6759C51.1386 4.64065 51.2787 4.68063 51.2787 4.81276C51.2787 4.95141 51.1082 4.98488 50.4018 4.98488ZM53.1967 4.98488H52.3747V3.43583C52.3747 1.96327 52.3855 1.88677 52.5939 1.88677C52.8009 1.88677 52.8131 1.96327 52.8131 3.26371V4.64065H53.4159C53.8787 4.64065 54.0188 4.68063 54.0188 4.81276C54.0188 4.95046 53.8544 4.98488 53.1967 4.98488ZM55.1696 4.98488H54.8956V3.43583V1.88677H55.1696H55.4436V3.43583V4.98488H55.1696ZM57.3617 4.98488H57.0877V3.60794V2.231H56.6493C56.3326 2.231 56.2108 2.18319 56.2108 2.05889C56.2108 1.91737 56.4057 1.88677 57.3069 1.88677C58.2081 1.88677 58.4029 1.91737 58.4029 2.05889C58.4029 2.1791 58.2872 2.231 58.0193 2.231H57.6357V3.60794V4.98488H57.3617ZM60.1018 4.98488H59.2797V3.43583V1.88677H60.1018C60.7594 1.88677 60.9238 1.92119 60.9238 2.05889C60.9238 2.19102 60.7838 2.231 60.321 2.231H59.7182V2.74736V3.26371H60.2662C60.6802 3.26371 60.8142 3.30578 60.8142 3.43583C60.8142 3.56587 60.6802 3.60794 60.2662 3.60794H59.7182V4.12429V4.64065H60.321C60.7838 4.64065 60.9238 4.68063 60.9238 4.81276C60.9238 4.95046 60.7594 4.98488 60.1018 4.98488ZM47.9358 3.95218C47.473 3.95218 47.3329 3.91219 47.3329 3.78006C47.3329 3.64793 47.473 3.60794 47.9358 3.60794C48.3985 3.60794 48.5386 3.64793 48.5386 3.78006C48.5386 3.91219 48.3985 3.95218 47.9358 3.95218ZM32.0432 1.54254C31.8727 1.54254 31.7692 1.47751 31.7692 1.37042C31.7692 1.26332 31.8727 1.1983 32.0432 1.1983C32.2137 1.1983 32.3172 1.26332 32.3172 1.37042C32.3172 1.47751 32.2137 1.54254 32.0432 1.54254ZM32.7557 1.54254C32.6339 1.54254 32.5364 1.46604 32.5364 1.37042C32.5364 1.2748 32.6339 1.1983 32.7557 1.1983C32.8774 1.1983 32.9749 1.2748 32.9749 1.37042C32.9749 1.46604 32.8774 1.54254 32.7557 1.54254Z" fill="#949494"/>
</svg>
