<svg width="120" height="25" viewBox="0 0 120 25" fill="none" xmlns="http://www.w3.org/2000/svg">
<path d="M77.7229 19.1129C75.365 12.6459 74.7263 11.387 73.8034 11.387C73.4572 11.387 73.2496 11.1489 73.3421 10.8579C73.5565 10.1834 79.3712 10.1509 79.5847 10.823C79.6645 11.0739 79.3591 11.3809 78.9062 11.5052C77.769 11.8172 77.8641 12.7714 79.4412 16.8734L80.7996 20.4066L81.862 17.0595C83.1761 12.9193 83.182 12.3387 81.9157 11.7333C80.009 10.8218 80.759 10.2931 83.9328 10.3113C86.9873 10.3289 87.5378 10.6379 86.26 11.6182C85.648 12.0878 85.6195 12.3836 86.0304 13.9957C86.2885 15.0083 86.8883 16.788 87.3632 17.9506C88.3653 20.4033 88.4125 20.3575 89.9347 15.4555C90.9984 12.0299 90.9973 11.387 89.9271 11.387C89.5888 11.387 89.3839 11.1608 89.4717 10.8843C89.6879 10.2039 94.3157 10.2039 94.5319 10.8843C94.6197 11.1608 94.502 11.387 94.2702 11.387C93.3072 11.387 92.2261 13.4051 90.1824 19.0174C88.9938 22.2818 87.8523 24.8935 87.6458 24.8213C87.4393 24.7491 86.5487 22.6969 85.6666 20.261C84.7846 17.825 84.0224 15.7885 83.9727 15.7352C83.9232 15.682 83.1109 17.7299 82.1677 20.2861C81.2246 22.8422 80.316 24.9337 80.1488 24.9337C79.9815 24.9337 78.8896 22.3143 77.7223 19.1128L77.7229 19.1129ZM33.3741 23.6473C32.3309 22.6276 32.2763 21.9407 33.1046 20.2602C33.728 18.9951 35.4938 17.8471 38.2602 16.908L39.793 16.3877L39.6724 14.2485C39.5302 11.7283 38.7944 10.982 37.0768 11.6158C36.3197 11.8951 35.8665 12.4485 35.6385 13.3718C35.283 14.811 33.9335 15.6099 33.1848 14.8243C32.4956 14.1011 33.6421 12.3059 35.5377 11.1403C37.6137 9.86381 40.5159 9.74271 41.5065 10.8912C42.0536 11.5255 42.1743 12.6305 42.1743 17.0046C42.1743 19.9565 42.3473 22.456 42.5613 22.5948C42.7742 22.7328 43.3106 22.6091 43.7534 22.3183C44.843 21.6043 45.2952 22.1948 44.4284 23.1997C43.3957 24.397 41.86 24.6691 40.6869 23.8626C39.7745 23.2354 39.5732 23.2337 38.3488 23.8433C36.4833 24.7721 34.4425 24.6917 33.3741 23.6472L33.3741 23.6473ZM38.6904 21.9397C39.9451 20.9041 40.2486 18.1604 39.1084 18.1604C38.2514 18.1604 35.7188 19.4358 35.7188 19.8673C35.7188 20.0546 35.6175 20.4846 35.4938 20.8228C35.2426 21.5099 36.2989 22.8171 37.1053 22.8171C37.3924 22.8171 38.1057 22.4223 38.6904 21.9397V21.9397ZM95.9912 23.7285C94.5594 22.784 93.0099 19.7622 93.0133 17.9209C93.0224 13.0032 96.9548 9.10313 101.04 9.96043C103.658 10.5099 105.907 14.2017 104.073 14.9401C103.722 15.0814 101.725 15.1971 99.6352 15.1971H95.8353V16.9114C95.8353 18.9021 96.6606 20.7927 97.9401 21.733C99.2525 22.6976 101.958 22.5786 103.266 21.4988C104.443 20.5274 105.14 20.7396 104.464 21.8636C102.995 24.3074 98.4016 25.3184 95.9912 23.7285V23.7285ZM101.887 12.9367C101.887 11.0303 99.0855 10.5371 97.3483 12.1377C95.9449 13.4307 96.4765 13.927 99.2648 13.927C101.745 13.927 101.887 13.8734 101.887 12.9367ZM0.617188 23.6533C0.617188 23.4147 1.07108 23.0384 1.62586 22.8171C2.62123 22.42 2.63451 22.3504 2.63451 17.5359C2.63451 12.9887 2.58129 12.6571 1.85139 12.6571C0.620985 12.6571 0.461326 11.8516 1.60156 11.3968C2.22875 11.1466 2.63451 10.6561 2.63451 10.1484C2.63451 6.35784 4.68595 2.54621 7.35599 1.37565C9.12222 0.601349 10.037 0.65589 11.1504 1.60187C11.9558 2.28613 12.0127 2.49753 11.5492 3.08352C10.9501 3.84089 9.27744 4.00446 8.88824 3.34372C8.75115 3.11089 8.20037 2.92038 7.66439 2.92038C6.31406 2.92038 5.47494 4.79917 5.35439 8.09236L5.2571 10.7521L7.33242 10.8784C9.14523 10.9888 9.38234 11.1066 9.20716 11.8095C9.05285 12.4287 8.57428 12.6436 7.13186 12.7415L5.2571 12.8687L5.13877 16.8904C4.99344 21.8308 5.1714 22.6495 6.46393 22.9899C8.57768 23.5466 7.38687 24.087 4.04664 24.087C1.9741 24.087 0.617188 23.9154 0.617188 23.6532V23.6533ZM10.0986 23.6644C9.96155 23.4316 10.2167 23.2411 10.6658 23.2411C11.9468 23.2411 12.3177 21.9281 12.3177 17.3939C12.3177 13.5506 12.2419 13.1316 11.4466 12.5775C10.5922 11.9823 10.6112 11.9485 12.4262 10.8325C13.4441 10.2066 14.3355 9.69431 14.4069 9.69417C14.4783 9.69401 14.4744 12.3403 14.3977 15.5747C14.2564 21.5724 14.5531 23.2411 15.7609 23.2411C16.0859 23.2411 16.3519 23.4316 16.3519 23.6644C16.3519 23.9087 15.0822 24.0878 13.3497 24.0878C11.6985 24.0878 10.2353 23.8973 10.0982 23.6644H10.0986ZM16.7558 23.6929C16.7558 23.4758 17.1644 23.1644 17.6636 23.0009C19.0285 22.554 19.1638 22.0941 19.1705 17.8782C19.1766 13.6431 18.9798 12.6577 18.1248 12.6577C17.1256 12.6577 17.525 11.9498 19.168 10.809C21.1626 9.42397 21.5974 9.4128 21.5974 10.7464V11.7985L22.9087 10.9596C24.8102 9.74318 27.684 9.8256 29.1399 11.1384C30.2479 12.1373 30.2749 12.2685 30.4072 17.3009C30.5383 22.2889 30.5715 22.4543 31.5167 22.8313C33.455 23.6046 32.5109 24.0876 29.0616 24.0876C25.5911 24.0876 24.6693 23.6041 26.6408 22.8177C27.6285 22.4236 27.6494 22.3228 27.6494 17.9598C27.6494 14.0688 27.5473 13.3971 26.8425 12.6576C25.8851 11.6531 24.799 11.5846 23.2402 12.4304C21.728 13.2508 21.5974 13.7267 21.5974 18.4178C21.5974 22.2923 21.6286 22.4277 22.6061 22.8177C24.5776 23.6041 23.6558 24.0876 20.1853 24.0876C18.2991 24.0876 16.7558 23.91 16.7558 23.6929V23.6929ZM44.9985 23.6539C44.9985 23.4153 45.4524 23.039 46.0072 22.8177C46.998 22.4225 47.0158 22.3335 47.0158 17.7998C47.0158 13.5405 46.9486 13.1375 46.1447 12.5774C45.2904 11.9822 45.3093 11.9484 47.1243 10.8324C49.4129 9.42514 49.8401 9.4116 49.8401 10.7465V11.7986L51.1514 10.9597C52.4366 10.1376 55.1444 9.84325 56.4792 10.3807C57.7978 10.9116 58.3127 12.8755 58.3191 17.3992C58.3252 21.9406 58.4545 22.4884 59.6242 22.9412C61.3242 23.5993 60.1641 24.0877 56.9008 24.0877C53.5606 24.0877 52.3697 23.5473 54.4835 22.9906C55.7797 22.6493 56.0114 21.6331 55.8329 17.0737C55.705 13.8055 55.5878 13.3424 54.6967 12.5854C53.5678 11.6261 51.7958 11.7785 50.5727 12.94C49.9512 13.5301 49.8401 14.3276 49.8401 18.1972C49.8401 22.5553 49.8791 22.7649 50.7163 22.8941C51.1982 22.9685 51.6672 23.2675 51.7586 23.5585C51.8829 23.9543 51.0517 24.0877 48.4616 24.0877C46.3661 24.0877 44.9985 23.9164 44.9985 23.6539V23.6539ZM61.1372 23.8482C61.1372 23.3158 62.2286 21.5442 65.1624 17.3143C66.8581 14.8696 68.3817 12.6313 68.5481 12.3402C68.7759 11.9418 68.2865 11.811 66.5679 11.811C64.5518 11.811 64.1531 11.9594 63.1545 13.081C61.7194 14.693 61.0343 14.7341 61.3878 13.1868C61.9142 10.8835 62.7535 9.59868 63.4844 9.97747C63.8577 10.171 66.1149 10.2738 68.5004 10.206C70.8859 10.1382 72.8377 10.2537 72.8377 10.4626C72.8377 10.6716 72.2362 11.6795 71.5011 12.7026C69.5205 15.4588 65.1718 22.2167 65.1718 22.5384C65.1718 22.9946 68.6857 22.8556 69.726 22.3582C70.2546 22.1056 70.9996 21.3435 71.3817 20.6649C72.2924 19.0473 72.839 19.1008 72.8322 20.8068C72.8185 24.1793 72.989 24.0876 66.7386 24.0876C63.6578 24.0876 61.1372 23.9798 61.1372 23.8482V23.8482ZM104.81 23.5585C104.902 23.2675 105.371 22.9685 105.853 22.8941C106.718 22.7605 106.729 22.657 106.729 14.3365C106.729 6.2321 106.697 5.89631 105.887 5.44162C104.904 4.88914 105.065 4.63691 106.837 3.95808C107.554 3.68344 108.459 3.31732 108.847 3.14455C109.508 2.85058 109.553 3.4593 109.553 12.6229V22.4153L110.562 22.8177C112.539 23.6066 111.609 24.0877 108.107 24.0877C105.517 24.0877 104.686 23.9543 104.81 23.5585ZM113.635 23.2905C112.83 22.4462 112.781 21.9663 112.781 14.986C112.781 7.93499 112.743 7.57766 111.998 7.57766C110.402 7.57766 110.614 6.5779 112.598 4.74582C113.685 3.74217 114.704 2.92102 114.862 2.92102C115.021 2.92102 115.207 3.54014 115.277 4.29685C115.401 5.64091 115.453 5.67568 117.547 5.80159C119.308 5.90751 119.667 6.05852 119.561 6.64822C119.462 7.19359 118.923 7.39675 117.316 7.49397L115.202 7.62195L115.208 13.844C115.211 17.2662 115.323 20.4967 115.458 21.0232C115.747 22.157 117.216 22.6529 118.368 22.0059C118.819 21.7526 119.285 21.711 119.405 21.9133C119.814 22.6079 118.058 23.7646 116.274 23.9756C114.826 24.1468 114.329 24.0176 113.636 23.2905L113.635 23.2905ZM12.3338 7.38635C11.2655 6.03581 12.8417 3.91294 14.0995 5.00823C14.8585 5.66914 14.9281 6.78613 14.2543 7.49304C13.6075 8.17176 12.9251 8.13384 12.3338 7.3863V7.38635Z" fill="#949494"/>
</svg>
