<svg width="86" height="28" viewBox="0 0 86 28" fill="none" xmlns="http://www.w3.org/2000/svg">
<path fill-rule="evenodd" clip-rule="evenodd" d="M12.2122 1.65577C12.2897 3.11691 12.367 4.57806 12.4451 6.03936C12.4546 6.21746 12.4835 6.39081 12.2171 6.39081C12.0075 6.39081 11.8889 6.35353 11.8581 6.09645C11.8134 5.72423 11.7289 5.35549 11.6378 4.99151C11.1455 3.02556 10.2143 2.21133 8.27228 2.11871C7.22904 2.06891 6.18198 2.10729 5.13706 2.09048C4.88357 2.08652 4.83812 2.20039 4.83842 2.42876C4.84361 4.87828 4.84193 7.32779 4.84117 9.77699C4.84117 9.9451 4.83964 10.1021 5.07087 10.0934C5.68247 10.0696 6.29561 10.1378 6.90646 10.0304C7.39727 9.94415 7.74105 9.67199 7.99851 9.24125C8.41184 8.54945 8.48596 7.7736 8.55155 6.99125C8.56344 6.84899 8.49664 6.64392 8.72146 6.60586C8.96473 6.56431 9.1444 6.57985 9.13555 6.93955C9.11359 7.82293 9.12853 8.70757 9.12853 9.59175C9.12853 11.0121 9.1383 12.4327 9.11694 13.8526C9.11389 14.0508 9.33139 14.4077 8.88664 14.4516C8.41687 14.4976 8.57824 14.1165 8.53965 13.887C8.46751 13.4594 8.44356 13.0223 8.35571 12.5989C8.11107 11.4202 7.47826 10.8718 6.31391 10.808C5.95244 10.7884 5.58791 10.8183 5.2275 10.7874C4.90385 10.7598 4.83293 10.89 4.83431 11.207C4.8459 13.6561 4.84071 16.1054 4.84071 18.5548C4.84071 18.7286 4.84452 18.9024 4.84071 19.0766C4.83766 19.2263 4.86969 19.3319 5.04463 19.3268C6.40771 19.2859 7.77659 19.4383 9.13372 19.1952C10.6292 18.9272 11.4513 17.9237 11.873 16.4819C12.1013 15.7016 12.2352 14.9033 12.2885 14.0924C12.3055 13.8275 12.3934 13.7485 12.6419 13.7536C12.9164 13.7592 12.8745 13.9411 12.8706 14.1089C12.8284 15.9629 12.7802 17.8168 12.7447 19.6708C12.7401 19.9214 12.6847 20.0261 12.4183 20.0251C8.27884 20.0143 4.13942 20.0134 0 20.0102V19.314C0.122932 19.1479 0.298484 19.1157 0.484102 19.1073C0.776942 19.0943 1.06978 19.1046 1.36232 19.0966C1.96127 19.0801 2.11669 18.9142 2.13346 18.2798C2.13575 18.193 2.13499 18.106 2.13499 18.0189V3.40778C2.13499 3.32055 2.13575 3.2338 2.13377 3.14689C2.11791 2.48982 1.96096 2.32377 1.3373 2.30728C1.05865 2.3003 0.779382 2.31331 0.501031 2.29459C0.334784 2.28397 0.160452 2.28413 0.0639063 2.09984C0.0105239 1.4377 0.010524 1.4377 0.638148 1.4377C4.33953 1.4377 8.04091 1.43738 11.7421 1.43897C11.9255 1.43929 12.1478 1.3676 12.2116 1.65577H12.2122ZM78.7226 19.4042C79.5336 19.0128 79.9221 18.3178 80.0401 17.427C80.1911 16.2883 80.1606 15.1426 80.171 13.9982C80.1733 13.7503 80.0575 13.7159 79.8626 13.7181C79.2774 13.7248 78.6915 13.707 78.1065 13.7255C77.8319 13.7341 77.7432 13.6399 77.7454 13.3551C77.7477 13.0848 77.84 13.0101 78.0892 13.0109C80.3476 13.0188 82.6054 13.0168 84.8636 13.0125C85.0093 13.0125 85.1339 13.0458 85.2464 13.1378V13.7468C84.6205 13.7382 83.9942 13.7376 83.3686 13.7175C83.0806 13.7079 83.1066 13.907 83.1017 14.0929C83.0742 15.0838 82.9309 16.0496 82.5984 16.986C81.5731 19.874 77.0197 22.1081 73.8726 18.6675C72.3529 17.0061 71.533 14.9796 71.2394 12.7277C70.8602 9.8206 71.1924 7.03217 72.6648 4.46672C73.3313 3.30628 74.1595 2.30347 75.3271 1.65165C75.7849 1.39631 76.2696 1.22455 76.7795 1.11987C76.9026 1.0945 77.0718 1.14446 77.1322 0.95874H78.2196C79.2275 1.25024 80.1551 1.70541 80.9803 2.38452C81.161 2.53296 81.3591 2.43685 81.494 2.2597C81.5969 2.1241 81.6945 1.97899 81.7654 1.82388C81.8643 1.60771 82.0384 1.65165 82.1971 1.66782C82.3807 1.68685 82.3368 1.85465 82.3407 1.97518C82.3886 3.45171 82.4333 4.92871 82.4785 6.4054C82.4826 6.55004 82.507 6.71244 82.2887 6.70514C82.1168 6.69943 81.9352 6.76287 81.8806 6.47423C81.7117 5.57594 81.4601 4.70303 81.0399 3.89149C80.101 2.07763 78.4309 1.34682 76.5207 1.89271C75.6583 2.13933 75.1193 2.7412 74.7367 3.53783C74.3874 4.26515 74.2562 5.04956 74.212 5.84857C74.0287 9.20794 74.0309 12.5675 74.2974 15.9226C74.3636 16.7511 74.548 17.5609 74.9868 18.2711C75.5996 19.2629 76.4544 19.7923 77.6242 19.6527C77.9384 19.3224 78.3328 19.3728 78.7228 19.4038L78.7226 19.4042ZM32.4405 10.7129C32.4405 8.00277 32.4313 5.29269 32.4501 2.58276C32.4531 2.17041 32.3311 2.06257 31.9574 2.08715C31.4855 2.11887 31.0097 2.0816 30.5365 2.09984C30.2696 2.10999 30.1679 2.02879 30.1745 1.73602C30.1802 1.47116 30.2605 1.39028 30.514 1.39028C34.3331 1.39726 38.1516 1.39789 41.9703 1.38933C42.2402 1.38869 42.2967 1.50399 42.3031 1.74617C42.3479 3.41142 42.4001 5.07668 42.4518 6.74194C42.4564 6.89324 42.4759 7.02741 42.2591 7.03915C42.0456 7.05104 41.9709 6.96064 41.9297 6.75367C41.7955 6.0733 41.651 5.39451 41.492 4.71984C41.4259 4.43992 41.3242 4.16761 41.2212 3.89895C40.8158 2.84159 40.0636 2.27239 38.9731 2.16264C37.7346 2.0383 36.4939 2.12537 35.2546 2.09222C35.0329 2.08636 34.9674 2.17469 34.9679 2.39641C34.9729 4.87463 34.974 7.35285 34.9668 9.83091C34.9662 10.0799 35.0489 10.1687 35.2815 10.154C35.6429 10.1307 36.0049 10.118 36.3667 10.1096C37.3057 10.0885 37.8461 9.53751 38.146 8.66761C38.3358 8.11728 38.4094 7.54205 38.4495 6.96365C38.4653 6.73623 38.5227 6.62695 38.769 6.63473C39.0164 6.64234 39.0283 6.78222 39.0283 6.9738C39.0262 9.3797 39.0262 11.7851 39.0283 14.191C39.0286 14.3866 39.0085 14.5157 38.7637 14.5222C38.5109 14.5285 38.4667 14.4104 38.4513 14.1885C38.4129 13.6393 38.354 13.0926 38.2256 12.5559C37.95 11.404 37.429 10.9443 36.2992 10.8816C35.9515 10.8621 35.6022 10.8718 35.2545 10.8535C35.0348 10.842 34.9677 10.9338 34.9682 11.1572C34.9737 13.7804 34.9747 16.4036 34.9667 19.0268C34.9657 19.2959 35.0801 19.334 35.2946 19.331C35.9219 19.3214 36.5495 19.3409 37.1761 19.3214C37.45 19.3132 37.4953 19.4302 37.4991 19.6799C37.5029 19.9428 37.4285 20.0261 37.1697 20.0251C34.9535 20.0151 32.7374 20.0164 30.5213 20.0235C30.2815 20.0245 30.174 19.9741 30.174 19.6911C30.174 19.402 30.2643 19.3114 30.5359 19.3227C30.995 19.3414 31.4575 19.3005 31.915 19.3359C32.3223 19.3676 32.4572 19.2605 32.4531 18.7995C32.4284 16.104 32.4409 13.4084 32.4409 10.7127L32.4405 10.7129ZM62.7388 10.7179C62.7388 13.4432 62.7438 16.1684 62.7322 18.8939C62.7307 19.2222 62.7958 19.3459 63.1406 19.3363C64.1436 19.3089 65.1493 19.2856 66.1511 19.3284C67.5227 19.3866 68.3799 18.6798 68.937 17.4579C69.3832 16.4778 69.5537 15.4168 69.777 14.3713C69.8009 14.2581 69.8145 14.1398 69.8578 14.0346C69.9326 13.8531 70.0991 13.9233 70.2254 13.9325C70.4199 13.9471 70.3619 14.1208 70.3547 14.237C70.2414 16.0736 70.1205 17.9101 70.0103 19.7471C69.9954 19.9882 69.8798 20.0243 69.6855 20.0218C69.0723 20.0143 68.4584 20.0193 67.8452 20.0193C64.6803 20.0193 61.5155 20.0166 58.3513 20.0237C58.0759 20.0243 57.9014 20.0037 57.9282 19.638C57.9465 19.3861 58.0323 19.3176 58.2581 19.3237C58.7457 19.3363 59.2367 19.2951 59.7213 19.3375C60.1357 19.3736 60.1907 19.1906 60.1895 18.8211C60.1782 15.4728 60.1831 12.124 60.1831 8.77529C60.1831 6.71672 60.1749 4.65846 60.1901 2.59989C60.1932 2.22243 60.1235 2.05115 59.7152 2.08493C59.2302 2.12537 58.7395 2.07906 58.2522 2.10015C57.9752 2.11189 57.9334 1.98343 57.9304 1.73792C57.9278 1.47465 58.012 1.38901 58.2679 1.3898C60.457 1.39853 62.6456 1.39964 64.8344 1.38933C65.1196 1.38774 65.1449 1.52731 65.1466 1.76155C65.1477 1.99072 65.0989 2.1065 64.8457 2.09936C64.289 2.0835 63.7298 2.11617 63.1733 2.08667C62.8268 2.06828 62.7288 2.1766 62.7307 2.54184C62.7453 5.26731 62.7386 7.99247 62.7386 10.7179H62.7388ZM79.8071 24.7776C79.8071 23.8806 79.8016 22.9829 79.8113 22.0856C79.8139 21.8144 79.7732 21.6289 79.4526 21.6617C79.3538 21.672 79.1918 21.6959 79.204 21.5237C79.2162 21.3643 79.3727 21.4105 79.4758 21.4032C79.6423 21.3911 79.8098 21.396 79.9765 21.3849C80.6324 21.3418 80.6324 21.3405 80.7658 22.0196C81.0962 21.6311 81.4328 21.3006 81.9566 21.2996C82.6132 21.2983 83.0024 21.6333 83.0849 22.3114C83.165 22.9752 83.131 23.6417 83.1252 24.3069C83.1226 24.6288 83.1636 24.8525 83.5477 24.8011C83.6352 24.7893 83.7734 24.7767 83.7818 24.9131C83.7934 25.0932 83.6353 25.0542 83.5371 25.0553C82.9941 25.0612 82.4518 25.0596 81.9088 25.0558C81.8176 25.0553 81.6867 25.0758 81.677 24.938C81.6672 24.7952 81.7975 24.792 81.889 24.8004C82.1794 24.8261 82.2367 24.6672 82.2325 24.4052C82.2196 23.6678 82.2288 22.9293 82.2175 22.1912C82.2145 21.9784 82.2212 21.7305 81.9957 21.6212C81.7586 21.5063 81.5348 21.6054 81.3285 21.7453C81.0195 21.9552 80.884 22.2905 80.7413 22.6207C80.6165 23.2909 80.7208 23.9672 80.6874 24.6396C80.6798 24.7919 80.7622 24.8357 80.8949 24.8395C81.0123 24.8431 81.1439 24.7982 81.2405 24.9676C80.5709 25.0107 79.9021 25.0149 79.1363 25.0069C79.3818 24.73 79.6431 24.9367 79.8069 24.7776H79.8071ZM76.6995 23.5295C76.7843 23.9799 76.7437 24.4347 76.7243 24.887C76.7179 25.0369 76.5922 25.0559 76.4751 25.0561C75.5969 25.0577 74.7185 25.0653 73.8403 25.0539C73.5435 25.0501 73.4941 24.8908 73.6997 24.5836C74.0894 24 74.4922 23.4264 74.8889 22.8486C75.0998 22.542 75.3098 22.2348 75.5197 21.9278C75.6394 21.7522 75.5957 21.6858 75.3888 21.6645C74.5942 21.5821 74.2518 21.8041 73.9689 22.6093C73.9371 22.6994 73.9425 22.8507 73.8197 22.8358C73.6672 22.8167 73.7183 22.6561 73.7122 22.5508C73.6469 21.4017 73.6478 21.4016 74.747 21.4017C75.2908 21.4017 75.8345 21.3963 76.3782 21.4044C76.7681 21.4098 76.8312 21.531 76.6018 21.8726C76.036 22.7167 75.4552 23.5502 74.8825 24.3895C74.8123 24.4926 74.672 24.5957 74.7254 24.7219C74.7823 24.8583 74.9471 24.792 75.064 24.7917C75.9147 24.7911 76.1667 24.6038 76.4922 23.7551C76.5245 23.6705 76.5196 23.5455 76.6993 23.5293L76.6995 23.5295Z" fill="#949494"/>
<path fill-rule="evenodd" clip-rule="evenodd" d="M79.8053 24.7817C79.694 24.8848 79.55 24.8813 79.4149 24.9411H81.0322C80.6987 24.9129 80.6189 24.6901 80.6433 24.386C80.691 23.8002 80.5376 23.2021 80.7397 22.625C80.7279 23.2178 80.7206 23.811 80.7019 24.4033C80.6935 24.6596 80.7487 24.8299 81.0426 24.8036C81.1359 24.7951 81.2631 24.7995 81.2503 24.9445C81.2381 25.0829 81.1092 25.061 81.0173 25.0612C79.7651 25.0634 78.5129 25.0632 77.2607 25.0612C77.1677 25.0612 77.0407 25.0755 77.0426 24.9303C77.0441 24.786 77.1728 24.7939 77.2637 24.8038C77.5718 24.8371 77.6356 24.674 77.6307 24.3906C77.617 23.6235 77.6191 22.8564 77.6298 22.0894C77.6334 21.8182 77.5944 21.6311 77.2732 21.666C77.1853 21.6761 77.0487 21.6945 77.0444 21.5502C77.0391 21.3718 77.1914 21.4144 77.2927 21.4086C77.5011 21.3965 77.7106 21.4038 77.9187 21.3883C78.5223 21.3427 78.5223 21.3396 78.5223 21.9952C78.523 22.7476 78.549 23.5019 78.5127 24.252C78.4908 24.7028 78.65 24.8522 79.0562 24.8135C79.3045 24.7897 79.5554 24.7913 79.805 24.7814L79.8053 24.7817ZM55.6396 22.1208C55.4258 22.8662 55.4631 23.6332 55.4561 24.397C55.4538 24.6431 55.4805 24.8315 55.7848 24.8039C55.8769 24.7954 56.0069 24.7928 56.0078 24.9319C56.0084 25.0724 55.8782 25.0601 55.7862 25.0604C55.258 25.0639 54.73 25.064 54.2019 25.0596C54.1123 25.0586 53.9796 25.0761 53.9863 24.9276C53.9924 24.7876 54.1228 24.7955 54.2126 24.8044C54.5436 24.8368 54.5601 24.6257 54.5578 24.3683C54.5511 23.617 54.5477 22.8654 54.5593 22.1143C54.5639 21.8269 54.5227 21.6262 54.1818 21.6649C54.1056 21.6736 53.9976 21.6696 53.9874 21.5554C53.9741 21.4032 54.099 21.4198 54.1905 21.4095C54.2732 21.4003 54.3568 21.4036 54.4403 21.3978C54.7169 21.3776 54.9983 21.3134 55.2696 21.3448C55.6849 21.3927 55.2745 21.8729 55.5536 22.0177C55.6276 22.0111 55.6744 22.0295 55.639 22.1208H55.6396ZM55.6396 22.1208L55.5539 22.0174C55.8844 21.4052 56.4074 21.2289 57.0394 21.3234C57.5641 21.4019 58.0552 22.082 57.9541 22.6117C57.8443 23.1871 57.8679 23.7653 57.8542 24.3443C57.8478 24.6219 57.8776 24.843 58.2264 24.8043C58.3103 24.7951 58.407 24.8169 58.4088 24.9308C58.4111 25.0472 58.3142 25.0596 58.2294 25.0598C57.6861 25.0613 57.1424 25.0613 56.599 25.0582C56.5163 25.0575 56.4163 25.0464 56.4205 24.9286C56.4246 24.8133 56.5262 24.797 56.6072 24.8065C56.9592 24.8468 56.9797 24.625 56.9742 24.3478C56.9609 23.6379 56.9696 22.9274 56.9528 22.2176C56.9475 21.9939 56.9722 21.7069 56.7099 21.6212C56.4344 21.5308 56.1586 21.5916 55.9411 21.8239C55.8448 21.927 55.7404 22.0222 55.6396 22.1211V22.1208ZM58.0157 22.0739C58.1805 21.5435 58.6926 21.2501 59.3363 21.3105C59.8411 21.3581 60.1965 21.6944 60.2242 22.232C60.2612 22.9398 60.2587 23.6502 60.2543 24.3592C60.2522 24.6491 60.2962 24.8466 60.6365 24.8052C60.7295 24.7938 60.8592 24.8001 60.8516 24.94C60.8439 25.0759 60.7143 25.0605 60.6208 25.0612C60.1056 25.064 59.5901 25.0647 59.0752 25.0604C58.9849 25.0598 58.8551 25.0881 58.8365 24.9514C58.8157 24.8016 58.9473 24.7979 59.0375 24.8058C59.3276 24.8306 59.386 24.6726 59.3816 24.4103C59.3703 23.7157 59.3861 23.0202 59.3709 22.3254C59.3651 22.0753 59.4151 21.7592 59.1442 21.626C58.8404 21.4761 58.5897 21.7021 58.3405 21.8549C58.2306 21.9218 58.1956 22.1105 58.0156 22.0737L58.0157 22.0739ZM78.7209 19.4084C78.3712 19.5701 78.0126 19.69 77.6222 19.6577C77.5834 19.3893 77.6531 19.166 77.9113 19.0686C78.1523 18.9782 78.3729 19.0363 78.5249 19.2693C78.575 19.346 78.6367 19.3911 78.7209 19.4084ZM54.3565 3.59841C53.3953 2.31696 52.2588 1.34635 50.6471 1.09419C50.5883 1.08515 50.5437 1.0271 50.5273 1.0271H49.5232C49.5022 1.0271 49.4073 1.10798 49.3292 1.12115C47.8751 1.36538 46.7672 2.18691 45.8375 3.32039C42.477 7.41788 42.4687 13.9753 45.8138 18.18C46.6247 19.1998 47.5882 19.9899 48.8562 20.274C50.9748 20.7482 52.6505 19.9171 54.023 18.282C57.4035 14.2553 57.546 7.85053 54.3563 3.59841H54.3565ZM53.2824 16.4811C53.0297 18.2891 52.169 19.2486 50.6362 19.615C49.0743 19.9885 47.7718 19.3321 47.0824 17.8319C46.6345 16.8572 46.499 15.813 46.4281 14.7528C46.4007 14.3479 46.3628 13.943 46.3582 13.5376C46.3479 12.5956 46.3552 11.6535 46.3552 10.7114C46.3284 8.87045 46.3268 7.02884 46.5913 5.2015C46.6641 4.69843 46.7832 4.2079 46.9757 3.73829C47.5192 2.4137 48.539 1.81199 49.8678 1.75014C51.247 1.68622 52.2982 2.27668 52.9255 3.5908C53.2717 4.31622 53.4278 5.09905 53.4837 5.89631C53.7326 9.43014 53.7738 12.9646 53.2824 16.481V16.4811ZM69.2097 21.5694C69.1527 21.3711 69.0081 21.3101 68.8223 21.3086C68.6443 21.3071 68.4852 21.3681 68.3699 21.499C68.2098 21.6804 68.0783 21.6978 67.877 21.5445C67.5038 21.2596 67.0604 21.2438 66.6321 21.3466C66.1151 21.4703 65.7136 21.7752 65.5736 22.3425C65.4424 22.873 65.6474 23.2743 66.0602 23.5818C66.0763 23.5937 66.0748 23.6314 66.087 23.6792C65.9914 23.7263 65.8905 23.7688 65.7963 23.824C65.2167 24.1634 65.1374 25.0696 65.6828 25.4677C65.9686 25.6765 65.8788 25.7458 65.6666 25.9095C65.1778 26.287 65.1958 26.8095 65.6758 27.2095C65.9 27.396 66.1906 27.4214 66.4225 27.5816H67.4261C67.7621 27.4178 68.1445 27.3719 68.4427 27.109C68.9323 26.6766 69.1245 26.0273 68.9166 25.4288C68.7421 24.9272 68.3239 24.71 67.6079 24.7405C67.1347 24.7608 66.6612 24.7822 66.1877 24.7833C65.986 24.7838 65.7252 24.8008 65.6785 24.5207C65.6264 24.2114 65.8849 24.112 66.0995 24.0078C66.2313 23.9443 66.3721 23.9713 66.5113 23.9799C66.7477 23.9941 66.9867 24.0179 67.2205 23.9949C68.2565 23.8923 68.7384 23.102 68.3908 22.0918C68.3588 21.9985 68.2821 21.9066 68.3837 21.8174C68.5014 21.7143 68.5876 21.7916 68.664 21.8882C68.7912 22.0499 68.9471 22.0737 69.1063 21.9595C69.2353 21.8672 69.2535 21.7191 69.21 21.5689L69.2097 21.5694ZM65.9555 26.1928C66.0412 25.8795 66.2261 25.657 66.5799 25.6642C66.816 25.6689 67.0523 25.6651 67.2883 25.6651C67.5925 25.621 67.8971 25.5625 68.2009 25.6393C68.7128 25.7687 68.8659 26.1734 68.5739 26.6205C68.1602 27.2541 66.8177 27.5186 66.2174 27.0809C65.9113 26.8581 65.8614 26.5353 65.9557 26.1928H65.9555ZM67.6577 23.1017C67.6079 23.6064 67.4627 23.7431 66.9985 23.7314C66.5699 23.7203 66.4347 23.5823 66.409 23.0803C66.3928 22.7641 66.3998 22.4459 66.4128 22.1294C66.427 21.7652 66.6156 21.5838 66.9722 21.5775C67.3383 21.5706 67.6015 21.6955 67.6543 22.108C67.6778 22.2932 67.6766 22.4816 67.6827 22.593C67.672 22.8134 67.6715 22.9582 67.6575 23.1017H67.6577ZM29.1141 19.2753C29.0399 19.0044 28.8308 19.2423 28.7044 19.2731C27.8768 19.4756 27.3442 19.1486 27.1495 18.2855C27.124 18.1729 27.1098 18.0576 27.0927 17.9432C26.9489 16.9798 27.0474 16.0047 26.9463 15.0368C26.7636 13.2856 26.0876 11.876 24.5566 10.9948C24.0667 10.713 23.5469 10.5127 23.0137 10.3002C23.7867 10.0705 24.5471 9.84281 25.2637 9.48184C27.0186 8.59767 27.808 6.93511 27.4379 4.82864C27.1847 3.38732 26.2052 1.6683 23.8902 1.47688C23.2638 1.42486 22.6385 1.39885 22.0112 1.39885C19.7253 1.39885 17.4395 1.3998 15.1534 1.39774C14.9093 1.39742 14.7034 1.36285 14.7031 1.7568C14.7028 2.17073 14.9383 2.09778 15.1663 2.09826C15.6125 2.09952 16.0601 2.12316 16.5039 2.09096C16.866 2.06479 16.9789 2.17184 16.9746 2.5658C16.9542 4.50796 16.9655 6.45028 16.9655 8.3926C16.9655 11.8563 16.9585 15.3204 16.9743 18.7846C16.9761 19.2044 16.9046 19.385 16.4573 19.3424C15.9735 19.2964 15.4821 19.3448 14.9949 19.3275C14.7234 19.3176 14.715 19.4715 14.7127 19.6811C14.7109 19.8957 14.7287 20.0296 14.9967 20.0285C17.157 20.0186 19.3176 20.0189 21.4781 20.0281C21.7304 20.0293 21.7781 19.9235 21.7781 19.6935C21.7781 19.4521 21.7395 19.3165 21.46 19.3264C20.917 19.346 20.3725 19.3224 19.8295 19.3365C19.5934 19.3424 19.5153 19.2596 19.5161 19.0133C19.5225 16.2886 19.5216 13.5636 19.5176 10.8386C19.5173 10.6223 19.5774 10.5251 19.8028 10.53C20.485 10.5443 21.1688 10.5089 21.8472 10.6214C22.768 10.7739 23.4465 11.2331 23.7909 12.1803C24.051 12.8956 24.1966 13.6183 24.1852 14.3853C24.1721 15.2684 24.0566 16.16 24.1814 17.0339C24.5966 19.9425 26.4521 20.7831 28.8656 19.9444C29.2408 19.814 29.1795 19.5122 29.1145 19.2751L29.1141 19.2753ZM19.8048 9.83599C19.4959 9.84709 19.5187 9.64932 19.5188 9.44061C19.5199 8.267 19.5193 7.09371 19.5193 5.92041C19.5193 4.77615 19.5275 3.63156 19.5136 2.48729C19.5098 2.18755 19.5937 2.08287 19.8899 2.0935C20.8776 2.12871 21.8663 2.06701 22.8546 2.16328C23.7159 2.24765 24.2639 2.74025 24.487 3.55512C24.9243 5.15329 24.8577 6.77033 24.4047 8.35359C24.1667 9.18463 23.594 9.66232 22.727 9.76081C21.7528 9.87151 20.7783 9.80205 19.8046 9.8363L19.8048 9.83599ZM72.6857 24.2086C72.6787 23.5429 72.6811 22.877 72.671 22.2114C72.6649 21.8149 72.524 21.4882 72.1213 21.3925C71.501 21.2454 70.8794 21.2355 70.2804 21.5083C70.1117 21.5849 69.967 21.7002 69.8717 21.8671C69.7557 22.0685 69.7271 22.281 69.8771 22.4754C70.0071 22.644 70.1906 22.6621 70.3704 22.5801C70.6126 22.4694 70.6291 22.2645 70.5443 22.0337C70.4473 21.7698 70.5821 21.661 70.8042 21.6036C71.492 21.4263 71.7397 21.6414 71.7855 22.3876C71.8111 22.804 71.713 22.9836 71.2745 22.9918C70.8023 23.0007 70.3335 23.1254 69.938 23.4275C69.5913 23.6927 69.4478 24.0527 69.5585 24.4948C69.6584 24.8937 69.9897 25.1308 70.437 25.1628C70.8341 25.1914 71.1908 25.0878 71.4693 24.7936C71.6688 24.5827 71.7835 24.5202 71.9363 24.846C72.0962 25.1865 72.4259 25.1965 72.7401 25.1462C73.0482 25.0965 73.2183 24.8915 73.2874 24.5018C72.7786 24.8106 72.6915 24.7587 72.6857 24.2087V24.2086ZM71.5195 24.4706C71.3154 24.6775 71.0807 24.7782 70.8005 24.6955C70.5732 24.6282 70.47 24.4373 70.4462 24.2086C70.4142 23.9049 70.4825 23.6268 70.743 23.4489C70.9816 23.2859 71.259 23.2427 71.5392 23.2373C71.8682 23.2313 71.7504 23.4996 71.7791 23.6452C71.7821 23.9719 71.7373 24.2495 71.5195 24.4706V24.4706ZM64.3595 24.1556C64.3512 23.489 64.3464 22.8223 64.3458 22.1557C64.3455 21.7302 64.1427 21.4547 63.7556 21.3749C63.176 21.255 62.5918 21.2389 62.0287 21.4802C61.8039 21.5767 61.6039 21.715 61.5147 21.9608C61.443 22.159 61.4379 22.3679 61.6108 22.5222C61.7658 22.6599 61.9476 22.6586 62.1161 22.5487C62.3043 22.4263 62.3019 22.2369 62.2326 22.0479C62.1782 21.898 62.1594 21.7763 62.3115 21.671C62.7989 21.3332 63.4136 21.6304 63.4646 22.2341C63.4719 22.3205 63.4697 22.4082 63.4798 22.4945C63.5149 22.8132 63.4145 22.9652 63.0726 22.9782C62.5688 22.9972 62.0733 23.1066 61.6459 23.4131C61.2762 23.6779 61.1342 24.0953 61.2499 24.5178C61.3534 24.8947 61.7023 25.1275 62.1492 25.1657C62.6891 25.2117 63.0738 24.9173 63.4624 24.5097C63.632 25.0609 63.9737 25.2425 64.4514 25.1433C64.754 25.0799 64.915 24.8748 64.9794 24.5324C64.4474 24.7949 64.3675 24.7418 64.3602 24.1553L64.3595 24.1556ZM63.4845 23.5942C63.4574 23.9583 63.4315 24.2417 63.2112 24.4641C63.0058 24.6712 62.7729 24.7786 62.4938 24.6966C62.2706 24.6311 62.1608 24.4476 62.1414 24.2106C62.1155 23.8903 62.1744 23.6024 62.4663 23.4249C62.6364 23.3215 62.8287 23.2857 63.0209 23.2494C63.3488 23.1871 63.548 23.2664 63.4845 23.5943V23.5942Z" fill="#949494"/>
</svg>
