<svg width="167" height="30" viewBox="0 0 167 30" fill="none" xmlns="http://www.w3.org/2000/svg">
<path d="M13.0455 16.5607L5.31005 24.6148L4.57031 23.8446L12.3043 15.7905L13.0455 16.5607Z" fill="#949494"/>
<path d="M13.8525 6.16899L12.1929 7.89592L11.4531 7.12618L13.1127 5.39771L13.8525 6.16899Z" fill="#949494"/>
<path d="M23.0587 1.36159L5.13818 20.0221L4.39844 19.2518L22.319 0.591309L23.0587 1.36159Z" fill="#949494"/>
<path d="M13.8168 1.38593L9.88036 5.48446L9.14062 4.71426L13.077 0.615723L13.8168 1.38593Z" fill="#949494"/>
<path d="M27.6775 10.9602L21.4053 17.4908L20.6641 16.7206L26.9378 10.1885L27.6775 10.9602Z" fill="#949494"/>
<path d="M27.6773 15.7735L25.8804 17.6425L25.1406 16.8724L26.9376 15.0034L27.6773 15.7735Z" fill="#949494"/>
<path d="M18.4602 1.36144L14.5444 5.43805L13.8047 4.66792L17.7204 0.591309L18.4602 1.36144Z" fill="#949494"/>
<path d="M0.87255 29.2326L4.57567 25.3773L3.83593 24.6072L0.132812 28.4624L0.87255 29.2326Z" fill="#949494"/>
<path d="M27.6817 1.3152L13.7241 15.8491L12.9844 15.0788L26.9419 0.544922L27.6817 1.3152Z" fill="#949494"/>
<path d="M27.6646 6.15448L22.9663 11.0463L22.2266 10.2761L26.9234 5.38428L27.6646 6.15448Z" fill="#949494"/>
<path d="M13.7412 20.65L22.2962 11.7412L21.5564 10.9709L13 19.8798L13.7412 20.65Z" fill="#949494"/>
<path d="M23.7163 19.8977L25.2224 18.3289L24.4826 17.5591L22.9766 19.1264L23.7163 19.8977Z" fill="#949494"/>
<path d="M46.8012 8.65632C45.5624 7.48168 44.1198 6.96509 42.1797 6.96509C38.574 6.96509 35.8203 9.83403 35.8203 13.5763C35.8203 17.5215 38.4456 20.2167 42.2712 20.2167C44.1021 20.2167 45.4886 19.7939 46.8927 18.7914V13.2565H42.2343L42.0498 15.0277H44.675V17.7229C43.9368 18.1457 43.5469 18.2226 42.4602 18.2226C41.482 18.1874 40.5411 17.8227 39.7789 17.1832C38.893 16.3745 38.2817 14.9508 38.2817 13.647C38.2817 12.3432 38.5401 11.3746 39.1322 10.5859C39.5073 10.1013 39.9838 9.71245 40.5252 9.44892C41.0667 9.18539 41.6589 9.05417 42.2565 9.06529C43.4447 9.05562 44.5905 9.52439 45.4546 10.3737L46.8042 8.66093L46.8012 8.65632ZM51.9587 19.8984H54.2133V15.0661H55.9453L58.9397 19.8984H61.5841L58.0154 14.3542C58.3569 14.2227 58.6755 14.0342 58.9589 13.7961C59.356 13.4629 59.6767 13.0415 59.8974 12.5627C60.1181 12.0839 60.2333 11.5598 60.2346 11.0287C60.2346 8.50719 58.4775 7.14036 55.2425 7.14036C54.1453 7.13424 53.0487 7.19688 51.9587 7.32793V19.8984ZM54.2133 9.00072C54.7862 8.98227 54.8423 8.98227 55.0993 8.98227H55.3946C57.0394 8.98227 58.0006 9.80944 58.0006 11.2147C58.0006 12.3125 57.1871 13.3672 56.3764 13.3672H54.2133V9.00072ZM73.8836 7.26951V14.8432C73.8836 15.9194 73.7536 16.6143 73.4406 17.0956C72.9607 17.8643 72.1472 18.2118 70.8523 18.2118C70.0948 18.2118 69.3551 17.9812 68.8929 17.6152C68.2462 17.0756 68.007 16.3253 68.007 14.8478V7.26951H65.7494V14.8539C65.7494 16.3914 65.9901 17.4677 66.5261 18.2364C67.3765 19.5064 68.9476 20.1798 71.0737 20.1798C72.4233 20.1798 73.8097 19.737 74.641 19.0451C75.6953 18.1595 76.1382 16.928 76.1382 14.8478V7.26951H73.8836ZM81.2588 7.46323V19.8984H83.3259V11.2885L90.7764 20.086L92.0891 19.7001V7.26951H90.0219V15.7979L82.626 7.05887L81.2588 7.46323ZM97.2126 19.8215C98.0946 19.9315 98.982 19.989 99.8703 19.9937H100.904C101.696 19.9743 102.486 19.8905 103.266 19.7431C104.173 19.5509 104.876 19.2819 105.449 18.8775C106.983 17.8382 108 15.8364 108 13.8346C108 10.8503 106.612 8.65632 104.191 7.77073C103.121 7.3834 101.997 7.18186 100.864 7.17419C99.6422 7.1609 98.4206 7.21221 97.2037 7.32793V19.8215H97.2126ZM99.4672 9.11757C99.5717 9.10585 99.6767 9.09969 99.7817 9.09912H100.207C100.491 9.08585 100.775 9.09202 101.057 9.11757C101.853 9.16214 102.632 9.3712 103.349 9.73256C104.699 10.426 105.605 12.0234 105.605 13.6977C105.605 14.9277 105.31 15.9117 104.699 16.7004C103.978 17.6229 102.739 18.1257 101.168 18.1257C100.189 18.1257 100.17 18.1257 99.4672 18.0104V9.11757V9.11757ZM114.971 9.19444H119.704V7.26951H112.759V19.8984H120.289L120.548 17.9535H114.977V14.2635H119.288V12.3909H114.977V9.19444H114.971ZM125.011 19.8984H127.266V15.0661H129.004L131.998 19.8984H134.644L131.075 14.3542C131.417 14.2227 131.735 14.0342 132.019 13.7961C132.416 13.4629 132.736 13.0415 132.957 12.5627C133.178 12.0839 133.293 11.5598 133.294 11.0287C133.294 8.50719 131.537 7.14036 128.302 7.14036C127.203 7.13553 126.104 7.1997 125.013 7.33255V19.903L125.011 19.8984ZM127.27 9.00072C127.843 8.98227 127.899 8.98227 128.156 8.98227H128.451C130.096 8.98227 131.057 9.80944 131.057 11.2147C131.057 12.3125 130.244 13.3672 129.433 13.3672H127.27V9.00072Z" fill="#949494"/>
<path d="M68 3.86768V6.24782H70.2871V3.86768H68Z" fill="#949494"/>
<path d="M71.5859 3.86768V6.24782H73.8731V3.86768H71.5859Z" fill="#949494"/>
<path d="M138.312 17.5215H140.586V19.8893H138.312V17.5215Z" fill="#949494"/>
<path d="M160.55 19.0682V13.5979H165.217V12.8076H160.55V8.03985H165.835V7.24805H159.719V19.8769H166.379L166.53 19.0682H160.55Z" fill="#949494"/>
<path d="M152.758 8.75184C151.512 7.64947 149.827 7.15747 147.295 7.15747C146.942 7.15747 146.27 7.19283 145.756 7.2528L145.567 7.27432C145.443 7.28816 145.293 7.30353 145.124 7.32813L145.031 7.34043V19.7664L145.124 19.7802C145.963 19.9228 146.813 19.9861 147.662 19.9693C149.446 19.9693 151.123 19.5742 152.151 18.9131C153.848 17.8061 154.744 15.9427 154.744 13.5319C154.744 11.6869 153.985 9.85422 152.764 8.75492L152.758 8.75184ZM153.889 13.5288C153.889 15.2339 153.422 16.5577 152.466 17.5724C151.457 18.6594 149.935 19.1652 147.676 19.1652C147.068 19.1717 146.461 19.126 145.861 19.0284V8.03076C146.314 7.97675 146.769 7.94903 147.225 7.94774C149.96 7.94774 151.745 8.65498 152.836 10.1725C153.514 11.1499 153.881 12.3234 153.886 13.5288H153.889Z" fill="#949494"/>
</svg>
